<?xml version="1.0" encoding="UTF-8"?>
<svg width="72px" height="43px" viewBox="0 0 72 43" version="1.1" xmlns="http://www.w3.org/2000/svg" xmlns:xlink="http://www.w3.org/1999/xlink">
    <!-- Generator: Sketch 48.1 (47250) - http://www.bohemiancoding.com/sketch -->
    <title>Amazon_Web_Services_Logo</title>
    <desc>Created with Sketch.</desc>
    <defs></defs>
    <g id="Page-1" stroke="none" stroke-width="1" fill="none" fill-rule="evenodd">
        <g id="Amazon_Web_Services_Logo" fill="#848C97">
            <path d="M20.3603903,15.592149 C20.3603903,16.4742737 20.4557552,17.1895099 20.6226436,17.7140164 C20.8133733,18.238523 21.0517853,18.8107119 21.3855622,19.4305833 C21.5047682,19.6213129 21.5524507,19.8120426 21.5524507,19.978931 C21.5524507,20.2173431 21.4094034,20.4557552 21.0994677,20.6941672 L19.5974717,21.6954979 C19.3829009,21.8385451 19.16833,21.9100688 18.9776004,21.9100688 C18.7391883,21.9100688 18.5007762,21.7908627 18.2623642,21.5762919 C17.9285873,21.2186738 17.6424928,20.8372145 17.4040807,20.4557552 C17.1656687,20.0504546 16.9272566,19.5974717 16.6650033,19.049124 C14.8053892,21.242515 12.468951,22.3392105 9.65568862,22.3392105 C7.65302728,22.3392105 6.05566644,21.7670215 4.88744733,20.6226436 C3.71922821,19.4782657 3.12319805,17.9524285 3.12319805,16.045132 C3.12319805,14.0186294 3.83843424,12.3735862 5.29274784,11.1338434 C6.74706143,9.89410069 8.67819916,9.27422932 11.1338434,9.27422932 C11.9444444,9.27422932 12.7788867,9.34575294 13.6610113,9.46495897 C14.543136,9.584165 15.4491018,9.77489466 16.4027501,9.98946551 L16.4027501,8.24905744 C16.4027501,6.43712575 16.0212908,5.17354181 15.2822134,4.4344644 C14.5192947,3.695387 13.2318696,3.33776891 11.3960967,3.33776891 C10.5616545,3.33776891 9.70337104,3.43313373 8.8212464,3.64770459 C7.93912176,3.86227545 7.08083832,4.12452872 6.2463961,4.45830561 C5.86493679,4.62519406 5.57884232,4.72055888 5.41195387,4.7682413 C5.24506542,4.81592371 5.12585939,4.83976491 5.03049457,4.83976491 C4.69671768,4.83976491 4.52982923,4.60135285 4.52982923,4.10068751 L4.52982923,2.9324684 C4.52982923,2.55100909 4.57751164,2.26491462 4.69671768,2.09802617 C4.81592371,1.93113772 5.03049457,1.76424928 5.36427146,1.59736083 C6.19871368,1.16821912 7.20004436,0.81060102 8.36826347,0.524506542 C9.53648259,0.214570858 10.7762253,0.0715236194 12.0874917,0.0715236194 C14.9245953,0.0715236194 16.9987802,0.715236194 18.3338878,2.00266134 C19.6451541,3.29008649 20.3127079,5.24506542 20.3127079,7.86759814 L20.3127079,15.592149 L20.3603903,15.592149 Z M10.6808605,19.2160124 C11.4676203,19.2160124 12.2782213,19.0729652 13.1365048,18.7868707 C13.9947882,18.5007762 14.7577068,17.9762697 15.4014194,17.2610335 C15.7828787,16.8080506 16.0689732,16.3073852 16.2120204,15.7351963 C16.3550676,15.1630073 16.4504325,14.4716123 16.4504325,13.6610113 L16.4504325,12.6596806 C15.7590375,12.4927922 15.0199601,12.349745 14.2570415,12.2543801 C13.4941229,12.1590153 12.7550455,12.1113329 12.0159681,12.1113329 C10.4186072,12.1113329 9.25038811,12.4212686 8.4636283,13.0649811 C7.67686849,13.7086937 7.29540918,14.6146596 7.29540918,15.8067199 C7.29540918,16.9272566 7.58150366,17.7616988 8.17753382,18.3338878 C8.74972278,18.9299179 9.584165,19.2160124 10.6808605,19.2160124 Z M29.8253493,21.7908627 C29.3962076,21.7908627 29.1101131,21.7193391 28.9193835,21.5524507 C28.7286538,21.4094034 28.5617654,21.0756265 28.4187181,20.6226436 L22.8160346,2.193391 C22.6729874,1.71656687 22.6014637,1.40663118 22.6014637,1.23974274 C22.6014637,0.858283433 22.7921934,0.643712575 23.1736527,0.643712575 L25.5100909,0.643712575 C25.9630739,0.643712575 26.2730095,0.715236194 26.439898,0.88212464 C26.6306276,1.02517188 26.7736749,1.35894877 26.9167221,1.81193169 L30.9220448,17.5948104 L34.641273,1.81193169 C34.760479,1.33510756 34.9035263,1.02517188 35.0942559,0.88212464 C35.2849856,0.739077401 35.6187625,0.643712575 36.0479042,0.643712575 L37.9552007,0.643712575 C38.4081836,0.643712575 38.7181193,0.715236194 38.908849,0.88212464 C39.0995786,1.02517188 39.2664671,1.35894877 39.3618319,1.81193169 L43.1287425,17.78554 L47.2532712,1.81193169 C47.3963185,1.33510756 47.5632069,1.02517188 47.7300954,0.88212464 C47.920825,0.739077401 48.2307607,0.643712575 48.6599024,0.643712575 L50.8771346,0.643712575 C51.2585939,0.643712575 51.4731648,0.834442227 51.4731648,1.23974274 C51.4731648,1.35894877 51.4493236,1.4781548 51.4254824,1.62120204 C51.4016412,1.76424928 51.3539587,1.95497893 51.2585939,2.2172322 L45.5128632,20.6464848 C45.3698159,21.1233089 45.2029275,21.4332446 45.0121978,21.5762919 C44.8214682,21.7193391 44.5115325,21.8147039 44.106232,21.8147039 L42.0558882,21.8147039 C41.6029053,21.8147039 41.2929696,21.7431803 41.10224,21.5762919 C40.9115103,21.4094034 40.7446219,21.0994677 40.649257,20.6226436 L36.95387,5.24506542 L33.2823242,20.5988024 C33.1631182,21.0756265 33.020071,21.3855622 32.8293413,21.5524507 C32.6386117,21.7193391 32.3048348,21.7908627 31.8756931,21.7908627 L29.8253493,21.7908627 Z M60.4612996,22.4345753 C59.2215569,22.4345753 57.9818141,22.2915281 56.7897538,22.0054336 C55.5976935,21.7193391 54.6678864,21.4094034 54.0480151,21.0517853 C53.6665558,20.8372145 53.4043025,20.5988024 53.3089377,20.3842315 C53.2135729,20.1696607 53.1658904,19.9312486 53.1658904,19.7166778 L53.1658904,18.5007762 C53.1658904,18.0001109 53.3566201,17.7616988 53.7142382,17.7616988 C53.8572854,17.7616988 54.0003327,17.78554 54.1433799,17.8332224 C54.2864271,17.8809049 54.500998,17.9762697 54.7394101,18.0716345 C55.5500111,18.4292526 56.4321357,18.7153471 57.3619428,18.9060767 C58.315591,19.0968064 59.2453981,19.1921712 60.1990464,19.1921712 C61.7010424,19.1921712 62.8692615,18.9299179 63.6798625,18.4054114 C64.4904635,17.8809049 64.9196052,17.1179862 64.9196052,16.1404968 C64.9196052,15.472943 64.7050344,14.9245953 64.2758927,14.4716123 C63.8467509,14.0186294 63.0361499,13.6133289 61.8679308,13.2318696 L58.4109559,12.1590153 C56.6705478,11.6106676 55.3831226,10.8000665 54.5963628,9.72721224 C53.809603,8.67819916 53.4043025,7.50998004 53.4043025,6.2702373 C53.4043025,5.26890663 53.6188734,4.38678199 54.0480151,3.62386338 C54.4771568,2.86094478 55.0493458,2.193391 55.7645819,1.66888445 C56.4798181,1.1205367 57.2904192,0.715236194 58.2440674,0.429141717 C59.1977157,0.143047239 60.1990464,0.0238412065 61.2480594,0.0238412065 C61.772566,0.0238412065 62.3209137,0.047682413 62.8454203,0.119206032 C63.393768,0.190729652 63.8944334,0.286094478 64.3950987,0.381459304 C64.8719228,0.500665336 65.3249057,0.619871368 65.7540475,0.762918607 C66.1831892,0.905965846 66.5169661,1.04901308 66.7553781,1.19206032 C67.089155,1.38278998 67.3275671,1.57351963 67.4706143,1.78809049 C67.6136616,1.97882014 67.6851852,2.24107341 67.6851852,2.5748503 L67.6851852,3.695387 C67.6851852,4.19605234 67.4944555,4.45830561 67.1368374,4.45830561 C66.9461078,4.45830561 66.6361721,4.36294079 66.2308716,4.17221113 C64.8719228,3.55233976 63.3460856,3.24240408 61.6533599,3.24240408 C60.2944112,3.24240408 59.2215569,3.45697494 58.4824795,3.90995786 C57.7434021,4.36294079 57.3619428,5.05433577 57.3619428,6.03182524 C57.3619428,6.69937902 57.6003548,7.27156798 58.077179,7.7245509 C58.5540031,8.17753382 59.4361277,8.63051674 60.6997117,9.03581725 L64.085163,10.1086715 C65.8017299,10.6570193 67.0414726,11.4199379 67.78055,12.3974274 C68.5196274,13.3749168 68.8772455,14.4954535 68.8772455,15.7351963 C68.8772455,16.7603682 68.6626747,17.6901752 68.2573741,18.5007762 C67.8282324,19.3113772 67.2560435,20.0266134 66.5169661,20.5988024 C65.7778887,21.1948326 64.895764,21.6239743 63.8705921,21.93391 C62.7977379,22.2676868 61.6772012,22.4345753 60.4612996,22.4345753 Z" id="Shape" fill-rule="nonzero"></path>
            <g id="Group" transform="translate(0.000000, 26.702151)">
                <path d="M64.9672876,7.31925039 C57.1235307,13.1126636 45.727434,16.1881792 35.9286982,16.1881792 C22.1961632,16.1881792 9.82257707,11.1100022 0.47682413,2.67021513 C-0.262253271,2.00266134 0.40530051,1.0966955 1.28742515,1.62120204 C11.3960967,7.48613883 23.8650477,11.0384786 36.7631404,11.0384786 C45.4651807,11.0384786 55.0255045,9.22654691 63.8229097,5.5073187 C65.1341761,4.91128853 66.2547128,6.36560213 64.9672876,7.31925039 Z" id="Shape"></path>
                <path d="M68.2335329,3.60002218 C67.2322023,2.31259703 61.6056775,2.98015081 59.0546684,3.29008649 C58.2917498,3.38545132 58.1725438,2.71789754 58.8639388,2.2172322 C63.3460856,-0.929807053 70.7130184,-0.0238412065 71.5713018,1.02517188 C72.4295853,2.09802617 71.3328898,9.46495897 67.1368374,12.9934575 C66.4931249,13.5418053 65.8732535,13.2557108 66.159348,12.5404746 C67.1129962,10.1801952 69.2348636,4.86360612 68.2335329,3.60002218 Z" id="Shape"></path>
            </g>
        </g>
    </g>
</svg>