<?xml version="1.0" encoding="UTF-8"?>
<svg width="35px" height="43px" viewBox="0 0 35 43" version="1.1" xmlns="http://www.w3.org/2000/svg" xmlns:xlink="http://www.w3.org/1999/xlink">
    <!-- Generator: Sketch 48.1 (47250) - http://www.bohemiancoding.com/sketch -->
    <title>ansible-logo-brand-35f1afb14996a9d9</title>
    <desc>Created with Sketch.</desc>
    <defs></defs>
    <g id="Page-1" stroke="none" stroke-width="1" fill="none" fill-rule="evenodd">
        <g id="ansible-logo-brand-35f1afb14996a9d9" fill-rule="nonzero">
            <g id="Group" transform="translate(0.000000, 38.495238)" fill="#252F3E">
                <path d="M9.21660635,4.34968889 C9.14261905,4.34968889 9.06289841,4.3309873 9.00747619,4.25604444 L6.63428571,1.1352 L6.63428571,4.31856508 L6.09316825,4.31856508 L6.09316825,0.398603175 C6.09316825,0.242574603 6.22230476,0.117806349 6.37000635,0.117806349 C6.45600635,0.117806349 6.52972063,0.142650794 6.58500635,0.217593651 L8.95205397,3.33215873 L8.95205397,0.161488889 L9.49303492,0.161488889 L9.49303492,4.07489841 C9.49303492,4.23720635 9.36389841,4.34955238 9.21646984,4.34955238 L9.21660635,4.34968889 Z M13.6925651,4.38709206 C13.1517206,4.38709206 12.5858952,4.27460952 12.0572,4.07503492 L12.1863365,3.62551429 C12.6720317,3.78167937 13.200727,3.8940254 13.6925651,3.8940254 C14.3751048,3.8940254 14.7316635,3.65049524 14.7316635,3.30731429 C14.7316635,2.99525714 14.4548254,2.83909206 13.502,2.38970794 C12.5490381,1.94032381 12.1741873,1.65338413 12.1741873,1.09151746 C12.1741873,0.38631746 12.7150317,0.0991047619 13.7355651,0.0991047619 C14.1598317,0.0991047619 14.8115206,0.186469841 15.1866444,0.298952381 L15.1006444,0.76075873 C14.6883905,0.660971429 14.172254,0.592307937 13.7478508,0.592307937 C13.028727,0.592307937 12.7335968,0.729498413 12.7335968,1.07281587 C12.7335968,1.40985397 12.9485968,1.55332381 13.956981,2.02154603 C15.0206508,2.5146127 15.291073,2.76428571 15.291073,3.27605397 C15.291073,4.01893016 14.5901048,4.38709206 13.6925651,4.38709206 Z M17.8549651,0.161625397 L18.4143746,0.161625397 L18.4143746,4.31829206 L17.8549651,4.31829206 L17.8549651,0.161625397 Z M23.1733143,2.43352698 L21.7836635,2.43352698 L21.7836635,3.8442 L23.1733143,3.8442 C23.6465873,3.8442 23.9355746,3.54456508 23.9355746,3.12616825 C23.9355746,2.7330254 23.6344381,2.43352698 23.1733143,2.43352698 Z M22.902619,0.635853968 L21.7836635,0.635853968 L21.7836635,1.96544127 L22.902619,1.96544127 C23.3514571,1.96544127 23.6773016,1.67822857 23.6773016,1.27880635 C23.6773016,0.885663492 23.3944571,0.635853968 22.902619,0.635853968 Z M23.1794571,4.31842857 L21.5072349,4.31842857 C21.4322414,4.31949424 21.3599765,4.29032381 21.3067377,4.23749589 C21.2534989,4.18466796 21.2237694,4.11263127 21.224254,4.03763175 L21.224254,0.442285714 C21.224254,0.2924 21.3472476,0.161488889 21.5072349,0.161488889 L22.8904698,0.161488889 C23.7388667,0.161488889 24.2429905,0.579612698 24.2429905,1.2349873 C24.2429905,1.59072698 24.0338603,1.92162222 23.7141587,2.11505397 C24.1878413,2.25866032 24.5072698,2.65180317 24.5072698,3.12616825 C24.5072698,3.78768571 23.960146,4.31829206 23.1794571,4.31829206 L23.1794571,4.31842857 Z M27.194019,4.31842857 C27.0405841,4.31842857 26.9175905,4.18738095 26.9175905,4.03763175 L26.9175905,0.161625397 L27.4768635,0.161625397 L27.4768635,3.81293968 L29.7024889,3.81293968 L29.7024889,4.31842857 L27.194019,4.31842857 Z M33.5162476,4.38709206 C32.3727206,4.38709206 31.6841746,3.96268889 31.6841746,3.10760317 C31.6841746,2.70190159 31.9117333,2.31490159 32.3544286,2.13389206 C31.9977333,1.9092 31.8133111,1.59086349 31.8133111,1.24140317 C31.8133111,0.467403175 32.4098508,0.0991047619 33.5286698,0.0991047619 C33.9037937,0.0991047619 34.4323524,0.142787302 34.8751841,0.242711111 L34.813619,0.70451746 C34.3464889,0.629574603 33.9098,0.586028571 33.4855333,0.586028571 C32.7601302,0.586028571 32.3727206,0.785739683 32.3727206,1.26638413 C32.3727206,1.64724127 32.7294159,1.94673968 33.2028254,1.94673968 L34.1617937,1.94673968 C34.297073,1.94673968 34.4016381,2.05280635 34.4016381,2.18385397 C34.4016381,2.32118095 34.297073,2.42724762 34.1617937,2.42724762 L33.1291111,2.42724762 C32.5879937,2.42724762 32.2438571,2.69548571 32.2438571,3.10760317 C32.2438571,3.71301587 32.8032667,3.89388889 33.5040984,3.89388889 C33.8853651,3.89388889 34.4016381,3.8442 34.8196254,3.74427619 L34.8997556,4.19980317 C34.5000603,4.31228571 33.9773714,4.38709206 33.5162476,4.38709206 Z M1.92994921,0.941222222 L2.90980317,3.39618095 L1.43005714,2.21265714 L1.92994921,0.941222222 Z M3.6705619,3.96173333 L2.16351429,0.279568254 C2.12065079,0.173365079 2.03451429,0.11712381 1.92994921,0.11712381 C1.82373375,0.115131223 1.72775095,0.18017652 1.69024127,0.279568254 L0.0360380952,4.31842857 L0.601726984,4.31842857 L1.25669206,2.65330476 L3.21066667,4.25590794 C3.28929524,4.32047619 3.34594603,4.34955238 3.41979683,4.34955238 C3.5672254,4.34955238 3.69649841,4.23734286 3.69649841,4.07517143 C3.69649841,4.04868889 3.68721587,4.00691746 3.6705619,3.96186984 L3.6705619,3.96173333 Z" id="Shape"></path>
            </g>
            <path d="M34.9295143,17.4549968 C34.9295143,27.0726635 27.133546,34.8686317 17.5156063,34.8686317 C7.89862222,34.8686317 0.101834921,27.0726635 0.101834921,17.4549968 C0.101834921,7.8380127 7.89862222,0.0412253968 17.5156063,0.0412253968 C27.1334095,0.0412253968 34.9295143,7.8380127 34.9295143,17.4549968" id="Shape" fill="#848C97"></path>
            <path d="M17.8088254,10.6788794 L22.3150889,21.801 L15.5083937,16.4392413 L17.8088254,10.6790159 L17.8088254,10.6788794 Z M25.8141968,24.3631175 L18.8825968,7.6815746 C18.6846603,7.20052063 18.2890603,6.94579683 17.8088254,6.94579683 C17.3276349,6.94579683 16.9032317,7.20052063 16.7052952,7.6815746 L9.09743492,25.9790984 L11.6999587,25.9790984 L14.7115968,18.4349873 L23.6992794,25.6958444 C24.0606159,25.9881079 24.3214825,26.1203841 24.6604317,26.1203841 C25.3394222,26.1203841 25.9329587,25.6112095 25.9329587,24.8766603 C25.9329587,24.7570794 25.8906413,24.5671968 25.8141968,24.3631175 Z" id="Shape" fill="#FFFFFF"></path>
        </g>
    </g>
</svg>