<?xml version="1.0" encoding="UTF-8"?>
<svg width="34px" height="43px" viewBox="0 0 34 43" version="1.1" xmlns="http://www.w3.org/2000/svg" xmlns:xlink="http://www.w3.org/1999/xlink">
    <!-- Generator: Sketch 48.1 (47250) - http://www.bohemiancoding.com/sketch -->
    <title>django-company-brand-logo-3930a8d790daa73f</title>
    <desc>Created with Sketch.</desc>
    <defs></defs>
    <g id="Page-1" stroke="none" stroke-width="1" fill="none" fill-rule="evenodd">
        <g id="django-company-brand-logo-3930a8d790daa73f" fill="#848C97" fill-rule="nonzero">
            <path d="M15.1402209,0 L22.1676871,0 L22.1676871,32.2092423 C18.5680859,32.8901196 15.9181779,33.1580123 13.0510276,33.1580123 C4.46791104,33.1490429 0,29.3145245 0,21.9500491 C0,14.8543896 4.73923313,10.2493006 12.0832638,10.2493006 C13.2228957,10.2493006 14.0910736,10.3389939 15.1402209,10.6076779 L15.1402209,0 Z M15.3864816,16.4121503 C14.5634141,16.1433344 13.8851748,16.053773 13.016865,16.053773 C9.46250613,16.053773 7.40945399,18.2218436 7.40945399,22.021408 C7.40945399,25.720727 9.37215337,27.7633589 12.9717546,27.7633589 C13.7494479,27.7633589 14.3825767,27.7195675 15.3864816,27.5851595 L15.3864816,16.4121503 Z" id="Shape"></path>
            <path d="M33.659635,11.1140491 L33.659635,27.2407638 C33.659635,32.7944908 33.2436166,35.4652393 32.0226012,37.7678497 C30.8829693,39.9815583 29.3816626,41.3774755 26.2794632,42.9192761 L19.7585,39.8463589 C22.8606994,38.4046718 24.3620061,37.1307638 25.3208006,35.1866626 C26.3245736,33.198638 26.641138,30.8960276 26.641138,24.8396227 L26.641138,11.114181 L33.659635,11.1140491 Z M25.9329571,0 L32.9604233,0 L32.9604233,7.14050613 L25.9329571,7.14050613 L25.9329571,0 Z" id="Shape"></path>
        </g>
    </g>
</svg>