<?xml version="1.0" encoding="UTF-8"?>
<svg width="75px" height="43px" viewBox="0 0 75 43" version="1.1" xmlns="http://www.w3.org/2000/svg" xmlns:xlink="http://www.w3.org/1999/xlink">
    <!-- Generator: Sketch 48.1 (47250) - http://www.bohemiancoding.com/sketch -->
    <title>dotnet</title>
    <desc>Created with Sketch.</desc>
    <defs></defs>
    <g id="Page-1" stroke="none" stroke-width="1" fill="none" fill-rule="evenodd">
        <g id="dotnet" fill="#848C97" fill-rule="nonzero">
            <path d="M72.5481102,3.72644094 C72.5481102,3.58085039 72.5078189,3.47690551 72.4262205,3.40918898 C72.3351417,3.33605512 72.1780394,3.29711811 71.959315,3.29711811 L71.6451102,3.29711811 L71.6451102,4.1611811 L72.0243228,4.1611811 C72.3747559,4.1611811 72.5477717,4.01559055 72.5477717,3.72644094 L72.5481102,3.72644094 Z M73.0380394,5.52770079 L72.6060079,5.52770079 L72.3304016,4.91994488 C72.1905669,4.61522047 72.0409134,4.46285827 71.8777165,4.46285827 L71.6451102,4.46285827 L71.6451102,5.52770079 L71.2889213,5.52770079 L71.2889213,2.99374803 L72.002315,2.99374803 C72.3192283,2.99374803 72.5575906,3.06248031 72.7207874,3.20570079 C72.8596063,3.32894488 72.9286772,3.48672441 72.9286772,3.68310236 C72.9286772,3.85781102 72.8721339,4.00475591 72.7583701,4.12664567 C72.6476535,4.24955118 72.4881811,4.33284252 72.2846929,4.37584252 L72.2846929,4.38667717 C72.4258819,4.41985827 72.5670709,4.57492913 72.7045354,4.85459843 L73.0380394,5.52905512 L73.0380394,5.52770079 Z M73.826937,4.28577953 C73.826937,3.78704724 73.6569685,3.36618898 73.3177087,3.03234646 C72.9770945,2.69884252 72.5616535,2.53124409 72.0717244,2.53124409 C71.5658819,2.53124409 71.1450236,2.69884252 70.8115197,3.0353937 C70.4776772,3.37329921 70.3114331,3.79144882 70.3114331,4.28577953 C70.3114331,4.79128346 70.4847874,5.21349606 70.8281102,5.55004724 C71.1673701,5.88625984 71.582811,6.05250394 72.0713858,6.05250394 C72.5575906,6.05250394 72.9726929,5.88490551 73.315,5.54429134 C73.6569685,5.20909449 73.8272756,4.78823622 73.8272756,4.28577953 L73.826937,4.28577953 Z M74.0666535,4.2746063 C74.0666535,4.83428346 73.8743386,5.30389764 73.4880157,5.68141732 C73.1016929,6.06232283 72.6280157,6.25192913 72.0619055,6.25192913 C71.4913937,6.25192913 71.0177165,6.0650315 70.6412126,5.69800787 C70.2643701,5.32556693 70.0774724,4.85764567 70.0774724,4.28984252 C70.0774724,3.73456693 70.2687717,3.268 70.6506929,2.88472441 C71.0329528,2.50212598 71.5093386,2.31150394 72.0784961,2.31150394 C72.6364803,2.31150394 73.1044016,2.49433858 73.4836142,2.85831496 C73.8729843,3.23211024 74.0666535,3.70274016 74.0666535,4.2746063 Z M19.9086614,11.3408268 L18.6802835,11.3408268 L18.6802835,4.31185039 C18.6802835,3.7565748 18.7168504,3.08110236 18.7818583,2.28374016 L18.7547717,2.28374016 C18.6396535,2.7499685 18.5343543,3.08787402 18.4415827,3.29711811 L14.8719055,11.3408268 L14.2736299,11.3408268 L10.6968425,3.35535433 C10.5962835,3.13222835 10.4906457,2.77366929 10.3839921,2.28340157 L10.3575827,2.28340157 C10.3948268,2.70324409 10.4161575,3.38311811 10.4161575,4.32573228 L10.4161575,11.3408268 L9.23213386,11.3408268 L9.23213386,0.873543307 L10.852252,0.873543307 L14.0633701,8.1720315 C14.3057953,8.72188976 14.4622205,9.14037795 14.5384016,9.42546457 L14.589189,9.42546457 C14.7984331,8.85325984 14.9643386,8.42427559 15.0902913,8.14155906 L18.3708189,0.873543307 L19.9079843,0.873543307 L19.9079843,11.3404882 L19.9083228,11.3404882 L19.9086614,11.3408268 Z M23.6862283,11.3404882 L22.4927244,11.3404882 L22.4927244,3.86593701 L23.6862283,3.86593701 L23.6862283,11.3404882 Z M23.8927638,1.1863937 C23.8927638,1.40647244 23.8148898,1.59066142 23.6615118,1.74166929 C23.5105039,1.89267717 23.3236063,1.96851969 23.1048819,1.96851969 C22.8915748,1.96851969 22.7060315,1.89572441 22.5536693,1.75013386 C22.4013071,1.60318898 22.3268189,1.41629134 22.3268189,1.1863937 C22.3268189,0.970377953 22.4019843,0.786188976 22.5536693,0.636874016 C22.6995991,0.491061091 22.8986297,0.410984277 23.1048819,0.415102362 C23.3236063,0.415102362 23.5105039,0.487220472 23.6615118,0.636874016 C23.8152283,0.786188976 23.8927638,0.970377953 23.8927638,1.1863937 Z M31.1455433,10.9944567 C30.5723228,11.3462441 29.8880472,11.5206142 29.0974567,11.5206142 C28.0258425,11.5206142 27.1631339,11.1651024 26.5039134,10.4544173 C25.8639921,9.76506299 25.5416614,8.87459055 25.5416614,7.78333858 C25.5416614,6.5593622 25.8920945,5.56799213 26.5980394,4.81464567 C27.3002598,4.05994488 28.2445669,3.68344094 29.4326535,3.68344094 C30.0820551,3.68344094 30.6583228,3.81074803 31.1621339,4.06265354 L31.1621339,5.2910315 C30.6041496,4.89929134 30.0143386,4.70528346 29.381189,4.70528346 C28.6197165,4.70528346 28.0007874,4.97107087 27.5203386,5.50162992 C27.0205906,6.04437795 26.7669921,6.76996063 26.7669921,7.67533071 C26.7669921,8.54514961 26.9982441,9.23314961 27.4580394,9.7413622 C27.919189,10.2468661 28.5327008,10.500126 29.3067008,10.500126 C29.9601654,10.500126 30.5723228,10.2854646 31.1452047,9.85783465 L31.1452047,10.9944567 L31.1455433,10.9944567 Z M36.8547244,5.07874016 C36.644126,4.91655906 36.3407559,4.83766929 35.9405512,4.83766929 C35.454685,4.83766929 35.0460157,5.05503937 34.7152205,5.49384252 C34.3400709,5.98411024 34.1531732,6.66262992 34.1531732,7.52940157 L34.1531732,11.3401496 L32.956622,11.3401496 L32.956622,3.86559843 L34.1531732,3.86559843 L34.1531732,5.40682677 L34.1819528,5.40682677 C34.3580157,4.8610315 34.6292205,4.44152756 34.9918425,4.14391339 C35.3311024,3.87237008 35.7147165,3.73524409 36.1369291,3.73524409 C36.4555354,3.73524409 36.6922047,3.76977953 36.8543858,3.83715748 L36.8543858,5.07874016 L36.8547244,5.07874016 Z M43.5224331,7.61675591 C43.5224331,6.65992126 43.3064173,5.92892126 42.8743858,5.42748031 C42.4548819,4.94567717 41.8687953,4.7046063 41.1144331,4.7046063 C40.3709055,4.7046063 39.7739843,4.94838583 39.3280709,5.43594488 C38.8560866,5.95634646 38.6204331,6.69174803 38.6204331,7.64587402 C38.6204331,8.54040945 38.8449134,9.24229134 39.2975984,9.7433937 C39.7479134,10.2475433 40.3539764,10.4994488 41.1144331,10.4994488 C41.9009606,10.4994488 42.5032992,10.2434803 42.9156929,9.73391339 C43.3202992,9.23551969 43.5224331,8.53059055 43.5224331,7.61675591 Z M44.7491181,7.57443307 C44.7491181,8.76556693 44.4129055,9.72240157 43.7425118,10.4395197 C43.069748,11.159685 42.1640394,11.5195984 41.0257244,11.5195984 C39.9043386,11.5195984 39.0111575,11.159685 38.3563386,10.4395197 C37.715063,9.74576378 37.3923937,8.82922047 37.3923937,7.68955118 C37.3923937,6.3893937 37.7567087,5.38685039 38.4877087,4.67514961 C39.1635197,4.01491339 40.0675354,3.6824252 41.2004331,3.6824252 C42.3150472,3.6824252 43.1858819,4.02981102 43.8132756,4.71814961 C44.4349134,5.4102126 44.7491181,6.36298425 44.7491181,7.57443307 Z M50.6824409,9.3408189 C50.6824409,9.9526378 50.4538976,10.4594961 49.9954567,10.8637638 C49.4957087,11.3012126 48.809063,11.5202756 47.945,11.5202756 C47.2373622,11.5202756 46.6170787,11.3719764 46.0909213,11.0699606 L46.0909213,9.78368504 C46.6766693,10.2600709 47.3233622,10.4997874 48.0337087,10.4997874 C48.9807244,10.4997874 49.4557559,10.1510472 49.4557559,9.45559843 C49.4557559,9.16340157 49.3514724,8.92097638 49.1412126,8.73441732 C48.9309528,8.54311811 48.5222835,8.3145748 47.9145276,8.04709449 C47.2884882,7.7731811 46.8425748,7.49215748 46.5798346,7.19996063 C46.263937,6.85359055 46.1048031,6.40395276 46.1048031,5.8500315 C46.1048031,5.22940945 46.3526457,4.71307087 46.8429134,4.30169291 C47.3341969,3.88929921 47.9656535,3.68276378 48.7410079,3.68276378 C49.3352205,3.68276378 49.8667953,3.79923622 50.3391181,4.03319685 L50.3391181,5.23787402 C49.8461417,4.88202362 49.2827402,4.7046063 48.6428189,4.7046063 C48.2466772,4.7046063 47.9284094,4.80347244 47.6914016,4.9957874 C47.4520236,5.19216535 47.3314882,5.44271654 47.3314882,5.74879528 C47.3314882,6.07992913 47.4323858,6.33725197 47.6321496,6.52144094 C47.8092283,6.69174803 48.1857323,6.8996378 48.7535354,7.14172441 C49.3917638,7.40920472 49.8529134,7.68616535 50.133937,7.96989764 C50.498252,8.32879528 50.6824409,8.78554331 50.6824409,9.3408189 Z M57.9941339,7.61675591 C57.9941339,6.65992126 57.7781181,5.92892126 57.3447323,5.42748031 C56.9265827,4.94567717 56.3391417,4.7046063 55.5861339,4.7046063 C54.8426063,4.7046063 54.245685,4.94838583 53.797063,5.43594488 C53.3264331,5.95634646 53.0921339,6.69174803 53.0921339,7.64587402 C53.0921339,8.54040945 53.3166142,9.24229134 53.7652362,9.7433937 C54.2206299,10.2475433 54.8273701,10.4994488 55.5861339,10.4994488 C56.3740157,10.4994488 56.975,10.2434803 57.3873937,9.73391339 C57.7916614,9.23551969 57.9941339,8.53059055 57.9941339,7.61675591 Z M59.2235276,7.57443307 C59.2235276,8.76556693 58.8842677,9.72240157 58.2128583,10.4395197 C57.5424646,11.159685 56.6370945,11.5195984 55.4987795,11.5195984 C54.3757008,11.5195984 53.4825197,11.159685 52.8277008,10.4395197 C52.1867638,9.74576378 51.8640945,8.82922047 51.8640945,7.68955118 C51.8640945,6.3893937 52.2307795,5.38685039 52.9577165,4.67514961 C53.6335276,4.01491339 54.5392362,3.6824252 55.6731496,3.6824252 C56.7881024,3.6824252 57.6572441,4.02981102 58.283622,4.71814961 C58.9066142,5.4102126 59.2235276,6.36298425 59.2235276,7.57443307 Z M64.4952598,1.32622835 C64.2599449,1.19587402 63.9985591,1.12951181 63.7006063,1.12951181 C62.8629528,1.12951181 62.4475118,1.65702362 62.4475118,2.71374016 L62.4475118,3.86559843 L64.199,3.86559843 L64.199,4.87931496 L62.4475118,4.87931496 L62.4475118,11.3401496 L61.2496063,11.3401496 L61.2496063,4.87897638 L59.9785669,4.87897638 L59.9785669,3.86525984 L61.2496063,3.86525984 L61.2496063,2.65381102 C61.2496063,1.83105512 61.5018504,1.18571654 62.014126,0.720503937 C62.4529291,0.31623622 62.9902598,0.115456693 63.6284882,0.115456693 C63.9985591,0.115456693 64.2863543,0.159811024 64.4952598,0.245811024 L64.4952598,1.32588976 L64.4952598,1.32622835 Z M69.2174724,11.2649843 C68.9350945,11.4271654 68.558252,11.5074094 68.0930394,11.5074094 C66.7888189,11.5074094 66.1367087,10.7720079 66.1367087,9.30154331 L66.1367087,4.88033071 L64.8544961,4.88033071 L64.8544961,3.86525984 L66.1367087,3.86525984 L66.1367087,2.04165354 C66.5186299,1.92111811 66.916126,1.78974803 67.3356299,1.65397638 L67.3356299,3.86525984 L69.2174724,3.86525984 L69.2174724,4.88033071 L67.3356299,4.88033071 L67.3356299,9.09805512 C67.3356299,9.59915748 67.4175669,9.95805512 67.5888898,10.1656063 C67.7622441,10.3802677 68.044622,10.4855669 68.4434724,10.4855669 C68.7410866,10.4855669 68.998748,10.4056614 69.2174724,10.2444961 L69.2174724,11.2649843 Z" id="Shape"></path>
            <path d="M4.54174803,40.5124331 C4.54174803,41.0981811 4.33284252,41.6047008 3.91062992,42.0326693 C3.48943307,42.4592835 2.97851181,42.6739449 2.37888189,42.6739449 C1.79313386,42.6739449 1.29474016,42.4592835 0.886409449,42.0326693 C0.477740157,41.6047008 0.274251969,41.0981811 0.274251969,40.5124331 C0.274251969,39.9097559 0.477740157,39.4018819 0.886409449,38.9810236 C1.29474016,38.5584724 1.79313386,38.3495669 2.37888189,38.3495669 C2.97851181,38.3495669 3.48943307,38.5615197 3.91062992,38.9894882 C4.33284252,39.4171181 4.54174803,39.9253307 4.54174803,40.5124331 Z M31.3293937,42.2337874 L27.4275669,42.2337874 L13.2636378,20.3599921 C12.9228979,19.8145878 12.635361,19.2376998 12.4049921,18.6372835 L12.2885197,18.6372835 C12.3894173,19.2230315 12.4408819,20.480189 12.4408819,22.4063858 L12.4408819,42.2337874 L9.22434646,42.2337874 L9.22434646,14.7906457 L13.3990709,14.7906457 L27.1394331,36.3197638 C27.6865827,37.1740079 28.060378,37.7858268 28.2499843,38.1545433 L28.3265039,38.1545433 C28.1988583,37.3649685 28.1324961,36.0191024 28.1324961,34.119315 L28.1324961,14.7906457 L31.3297323,14.7906457 L31.3297323,42.2337874 L31.3293937,42.2337874 Z M51.9507717,42.2337874 L37.405937,42.2337874 L37.405937,14.7906457 L51.319315,14.7906457 L51.319315,17.6987323 L40.6201024,17.6987323 L40.6201024,26.8275984 L50.5344803,26.8275984 L50.5344803,29.7370394 L40.6197638,29.7370394 L40.6197638,39.3243465 L51.9504331,39.3243465 L51.9504331,42.2337874 L51.9507717,42.2337874 Z M74.0124803,17.6990709 L66.1075906,17.6990709 L66.1075906,42.234126 L62.8920709,42.234126 L62.8920709,17.6990709 L54.9722835,17.6990709 L54.9722835,14.7896299 L74.0128189,14.7896299 L74.0128189,17.6990709 L74.0124803,17.6990709 Z" id="Shape"></path>
        </g>
    </g>
</svg>