<?xml version="1.0" encoding="UTF-8"?>
<svg width="39px" height="43px" viewBox="0 0 39 43" version="1.1" xmlns="http://www.w3.org/2000/svg" xmlns:xlink="http://www.w3.org/1999/xlink">
    <!-- Generator: Sketch 48.1 (47250) - http://www.bohemiancoding.com/sketch -->
    <title>flask</title>
    <desc>Created with Sketch.</desc>
    <defs></defs>
    <g id="Page-1" stroke="none" stroke-width="1" fill="none" fill-rule="evenodd">
        <g id="flask" fill="#848C97" fill-rule="nonzero">
            <path d="M11.7262918,26.5918998 C10.2445289,25.588906 8.66352584,24.6277581 7.58343465,23.2733895 C5.30972644,20.8850349 3.55957447,18.1204596 2.36306991,15.2147852 C1.63966565,13.3251814 1.39194529,11.2994477 0.45881459,9.48320504 C-0.515957447,8.16362085 0.62674772,6.72216048 2.30638298,6.30291691 C3.05364742,6.17894844 4.36838906,5.5719214 2.78130699,6.00633411 C1.35820669,6.90419013 1.22112462,5.19033913 2.68009119,5.08180134 C3.67583587,4.96816358 4.04240122,4.26711404 3.70151976,3.63602561 C2.63221884,3.03579854 6.29346505,2.37724874 4.45106383,1.48187732 C2.5331307,-0.299188649 7.13495441,-0.642063463 5.9993921,1.38105486 C5.72796353,2.9365453 9.21610942,1.09532585 8.40607903,2.89195327 C9.22902736,3.75489411 11.4869301,3.08875975 11.4302432,4.29862923 C12.6287234,4.36950572 13.0401216,5.23663115 14.1639818,5.30332305 C15.3306991,5.75656642 17.443617,6.11304115 17.8399696,7.2435342 C16.6834347,8.03115243 14.006079,5.61638267 13.8767477,7.79694618 C14.2265957,11.0188187 14.137386,14.3375906 15.5068389,17.4055486 C16.1545593,19.2629834 17.7256839,20.7251051 19.143769,22.1720578 C20.5013678,23.5888029 22.3398176,24.5868275 24.2141337,25.4264916 C25.8577508,26.0934106 27.6297872,26.5354079 29.4215805,26.8134215 C30.1480243,26.3353322 31.4308511,24.5576662 32.5636778,25.3067077 C32.6183891,26.1500333 30.3150456,27.0682892 32.4556231,26.9750513 C33.7136778,26.6483918 34.5852584,27.8111846 35.6206687,26.7620296 C36.574772,27.7344236 39.5857143,26.1412718 38.9071429,28.1285596 C37.9889058,28.6382949 36.650304,28.3303353 35.731155,29.0316464 C34.2156535,28.3800273 33.0089666,29.6139582 31.3305471,29.4583437 C29.4673252,29.7455112 27.5709726,29.8611105 25.6820669,29.8634643 C22.5823708,29.6530579 19.4173252,29.5642662 16.468693,28.6355488 C14.8071429,28.2202283 13.1863222,27.4060641 11.7262918,26.5918998 Z M14.343921,27.5684784 C15.9658055,28.1713209 17.5519757,28.8075093 19.3297872,28.9998696 C22.150152,29.3368599 25.062766,29.8566644 27.8930091,29.3830211 C26.6121581,28.8854473 25.287386,29.5762969 24.0113982,29.027331 C22.481003,29.3103139 20.8384498,28.9546238 19.2819149,28.7792633 C17.5129179,28.1013598 15.6031915,27.6353011 13.9465046,26.7543142 C11.8753799,26.1037413 15.0168693,27.5890091 15.5762918,27.7097083 C16.8702128,28.3413198 14.1530395,27.3854026 13.7693009,27.1229504 C12.6854103,26.5996152 12.5474164,26.7090683 13.66231,27.2401189 C13.8867781,27.3531028 14.1085106,27.4719713 14.343921,27.5684784 Z M11.2572948,25.6915592 C12.8294833,26.1926638 11.250304,24.7406112 10.5308511,24.8245645 C10.2117021,24.3481752 9.31155015,24.0471462 9.94650456,23.791494 C8.80471125,24.1327996 8.75,22.4942712 8.21352584,22.728739 C7.0050152,22.4003795 7.74331307,21.2373251 6.30334347,20.5226756 C6.17203647,19.7699726 4.87325228,19.1175689 4.45987842,17.9827605 C4.27705167,17.401364 2.99209726,15.7331512 3.78115502,17.2857648 C4.45288754,18.7804479 5.63449848,20.0615861 6.61838906,21.3399783 C7.38161094,22.5574323 8.28404255,23.8308553 9.67431611,24.5902275 C10.143465,24.9775636 10.5954407,25.5700753 11.2571429,25.6915592 L11.2572948,25.6915592 Z M18.1819149,28.2063668 C18.8258359,28.5561724 21.9414894,28.972539 19.9907295,28.3499506 C19.6635258,28.4090579 16.3732523,27.5487324 18.1819149,28.2063668 Z M11.0665653,23.2357282 C11.8218845,23.7340866 14.1136778,23.2998047 12.2232523,22.93823 C11.3636778,22.5439632 9.42583587,22.2739264 10.7468085,23.175967 L11.0665653,23.2357282 Z M14.7235562,24.9030256 C16.5700608,25.3520844 13.1703647,23.8974164 14.2676292,24.7372112 L14.5112462,24.8321491 L14.7235562,24.9030256 Z M14.7396657,24.0610077 C16.081155,24.2095606 13.1427052,23.2750895 14.4445289,23.9770544 L14.7396657,24.0610077 Z M19.4022796,26.5278233 C20.6556231,25.8840503 20.2422492,28.0371525 21.5282675,26.7099837 C22.7962006,25.9130809 20.4329787,27.6950623 21.9952888,26.8519982 C23.1261398,26.2011638 24.7955927,27.1606117 25.850152,27.472756 C26.6082067,27.44111 27.3457447,28.0371525 28.1237082,27.6744009 C29.6203647,27.3272107 25.1962006,27.1598271 26.3557751,26.5448232 C24.9864742,26.8879595 23.974924,26.1361719 23.3010638,25.381115 C21.7645897,25.0757707 19.9887538,24.4003518 19.2215805,23.2297128 C18.9085106,22.7911155 19.6729483,23.2922201 18.9513678,22.5739092 C18.0261398,21.8657981 17.5641337,21.0610492 16.9428571,20.2000699 C16.2004559,19.8596797 16.1130699,18.8566859 16.0384498,20.1668547 C16.0445289,19.3398752 15.1420973,18.783194 14.9214286,19.014131 C14.9174772,18.2178821 15.887538,18.6172489 15.2086626,18.0281371 C15.062766,17.2028576 14.5816109,16.3427936 14.437386,15.4106763 C14.2130699,14.9617483 14.4054711,13.9998157 13.6703647,15.0164095 C13.4028875,16.0913259 13.5819149,13.6961714 13.9983283,14.4854897 C14.5448328,13.6799562 13.8013678,13.7747633 13.7715805,13.8860472 C14.1275076,13.2063129 13.9972644,12.2416342 13.6782675,12.609355 C13.8680851,11.8884287 13.9784195,9.95684828 13.3951368,10.2997231 C13.7487842,9.54558158 14.0659574,6.850052 12.5293313,7.87815337 C11.9072948,7.88573794 10.8291793,8.07234449 10.3203647,8.29033545 C11.9173252,9.04800772 10.1592705,8.563903 9.50835866,8.44333451 C9.42386018,9.14451482 8.77993921,8.84178591 7.97492401,8.84858587 C9.26094225,8.98536964 7.34878419,9.97973276 6.61261398,9.59344282 C5.65455927,9.98679425 7.43844985,10.9701728 6.63145897,11.2744709 C6.73100304,11.7320297 5.16458967,11.1087874 5.28693009,12.1673578 C4.35759878,11.8302368 5.15972644,13.4226039 5.62477204,12.8839687 C7.20592705,13.2524742 6.73784195,14.0913536 6.7775076,14.889041 C6.52006079,15.3532689 5.50547112,13.7971247 6.55182371,13.8690473 C5.72598784,12.7152775 5.6387538,13.4516345 4.95288754,13.987785 C4.79392097,14.0263617 6.70197568,14.7504265 5.50455927,15.1079474 C6.55790274,15.2482619 6.5887538,16.0417647 6.80349544,16.5437847 C7.43647416,17.1113197 7.30607903,15.9167501 8.06458967,16.5993613 C7.5843465,15.9912881 5.52431611,14.8862949 7.1831307,15.2406773 C7.17401216,14.6292042 6.88282675,14.1356841 7.39164134,14.147584 C7.89559271,13.3634966 6.86398176,16.0819106 7.99893617,15.0849321 C8.31276596,14.966979 8.39148936,14.2999293 8.95592705,15.148224 C9.77568389,15.8426044 9.25212766,16.3451475 8.09528875,15.7090898 C8.30197568,16.3136323 9.64255319,16.5290079 9.39012158,17.4740713 C9.65729483,18.3052354 10.031155,17.9989758 10.3569909,17.9511145 C10.61231,18.758348 10.7577508,18.1649209 10.7696049,17.7800694 C11.9392097,17.9958373 11.6648936,18.5908336 12.031459,19.0064157 C12.837386,19.3192138 10.8778116,16.8848288 12.2612462,18.2743741 C13.7168693,19.4056517 12.8077508,19.877595 11.5010638,19.6964807 C12.3278116,19.6389426 12.593921,20.658544 13.6287234,20.6225827 C14.5717325,21.0090034 15.2107903,22.4917866 13.5849544,21.8742981 C13.0214286,21.4364854 11.024772,20.8969349 12.6557751,21.7290144 C14.1603343,22.3292414 15.3568389,22.6875469 16.8086626,23.4410346 C17.8472644,24.078923 18.2962006,24.8097877 18.6898176,24.9545484 C17.8164134,25.3135077 16.0585106,24.6680347 17.3641337,24.4705744 C16.5492401,24.3430752 15.6331307,23.9883005 16.4130699,24.8613105 C17.0768997,25.3384845 18.7633739,25.2878771 19.0665653,25.3417537 C18.8101824,25.8275584 18.3700608,25.8661351 19.0764438,25.9036656 C18.2882979,26.2653711 19.3299392,26.321863 19.4024316,26.5278233 L19.4022796,26.5278233 Z M17.7904255,22.6106551 C17.3104863,22.1788577 17.1863222,21.3708396 17.7050152,22.0734584 C17.9714286,22.1659117 18.5568389,23.3948733 17.7904255,22.6106551 Z M14.7158055,18.2538434 C14.1443769,17.1525117 15.1212766,17.6517856 14.8430091,18.4343038 L14.7158055,18.2538434 Z M9.45379939,15.2344004 C9.19848024,14.8728257 8.77598784,13.8124246 8.91215805,13.4885112 C9.0343465,14.016031 10.2150456,15.7578665 9.49042553,14.2102221 C8.69057751,12.9129993 10.4475684,14.6307734 10.6284195,14.9549483 C10.7129179,15.2765079 10.1344985,14.8669412 10.5259878,15.6218673 C9.81155015,14.7624572 10.1045593,16.0965567 9.45379939,15.2344004 Z M6.7993921,13.3157661 C6.19407295,12.7974 5.75577508,12.3203568 6.8281155,12.9940758 C7.24057751,13.0078064 5.9100304,11.9090901 6.92765957,12.6451856 C7.99680851,12.8129615 7.45516717,14.1546455 6.7993921,13.3157661 Z M7.16215805,12.5222633 C5.40227964,11.1735177 9.37325228,13.2267128 7.4493921,12.7717694 L7.16215805,12.5222633 Z M12.2054711,15.0429555 C11.4433131,14.6503886 12.0027356,12.2768109 12.2632219,13.8997779 C13.0036474,13.6935561 12.2221884,14.7386573 12.7738602,14.7283266 C12.687538,15.3873995 12.4401216,15.6246134 12.2054711,15.0429555 Z M7.50683891,12.0792198 C6.37613982,10.7366204 10.7933131,13.4369884 8.23145897,12.4196101 C7.96398176,12.3589335 7.64118541,12.3374875 7.50683891,12.0792198 Z M7.68085106,11.5669999 C8.35273556,11.4430315 10.4653495,12.5820244 8.52553191,11.8919595 C8.3100304,11.686653 7.84984802,11.7798909 7.68085106,11.5668692 L7.68085106,11.5669999 Z M13.4515198,14.0416616 C13.5234043,12.8856687 13.8533435,13.3515966 13.4545593,14.2076068 L13.4515198,14.0415309 L13.4515198,14.0416616 Z M8.18069909,11.1643639 C8.45486322,10.818743 7.45303951,9.60207354 8.32462006,10.7281205 C8.70151976,10.9854727 9.41474164,11.1591332 8.78480243,11.267671 C9.77553191,12.0194587 8.54346505,11.4712774 8.18069909,11.1643639 Z M12.5609422,10.5451754 C12.2112462,10.0156941 13.0024316,8.21069748 13.0908815,9.33007521 C12.7220365,10.2023006 12.9844985,10.6898053 13.2407295,9.51995097 C13.7159574,8.59986432 13.1384498,11.337109 12.5609422,10.5451754 Z M14.0091185,23.4478346 C15.0097264,23.6693563 15.0048632,23.31432 14.100304,23.2082668 C13.6144377,22.8193615 12.0790274,22.406264 13.4534954,23.1604055 C13.5440729,23.358912 13.831307,23.3536813 14.0091185,23.4478346 Z M10.4574468,21.4176547 C11.0079027,21.7719064 12.5332827,22.4198639 11.2424012,21.553 C11.6776596,21.1175412 10.4095745,20.8859503 10.8300912,20.5944675 C9.75972644,20.0307248 9.98510638,20.0812014 10.7357143,20.0992474 C9.44969605,19.6040274 10.9214286,19.6416887 10.8519757,19.3878672 C10.356079,19.3039139 8.38829787,18.6351641 9.54604863,19.4425284 C8.36945289,18.9267777 9.2656535,19.6348888 8.9100304,19.5604815 C7.70638298,19.2782833 9.98145897,20.3490151 8.71914894,20.0830322 C9.40896657,20.5532754 10.5765957,21.2887171 9.01033435,20.580606 C8.80471125,20.8362583 10.131459,21.2237252 10.4572948,21.4176547 L10.4574468,21.4176547 Z M22.9580547,27.7257929 C23.4857143,27.2864109 22.9799392,28.4269732 23.8325228,27.6181704 C23.8413374,27.0391279 23.8066869,26.6972992 22.8527356,27.4008333 C22.5892097,27.5266325 22.4721884,28.0592523 22.9580547,27.7259236 L22.9580547,27.7257929 Z M14.3161094,22.9518299 C14.9036474,23.4008887 17.01231,23.2811048 15.0288754,23.0075373 C14.7355623,22.6338011 13.1644377,22.723639 14.3161094,22.9518299 Z M4.64665653,17.3629181 C3.79407295,16.3162476 4.11702128,15.8458736 3.29422492,14.9907789 C3.13799392,14.3366752 1.8831307,12.853892 2.64528875,14.4246823 C3.34285714,15.3439844 3.54954407,16.7667449 4.64680851,17.3629181 L4.64665653,17.3629181 Z M25.2615502,28.0225064 C26.1539514,27.5275479 25.0559271,27.6035244 25.099696,28.0677523 L25.2615502,28.0225064 Z M26.693617,28.3570121 C27.837386,27.6470703 26.0010638,28.2208821 26.4541033,28.4920958 L26.693617,28.3570121 Z M7.50683891,17.8348614 C8.34452888,17.9963604 10.8566869,19.6108274 9.37507599,17.9469299 C8.61595745,17.7536542 9.07112462,16.1571025 8.29696049,16.4393007 C8.81671733,17.1866423 8.72401216,17.5037557 7.63282675,17.0336432 C6.26261398,16.457216 6.86276596,17.3184569 7.13130699,17.5561939 C6.76534954,17.6279857 7.61413374,17.8289768 7.50668693,17.8347306 L7.50683891,17.8348614 Z M3.68768997,15.2397619 C3.83768997,14.7051806 2.30531915,12.3015262 2.96428571,14.0348617 C3.20167173,14.3982671 3.17705167,15.0865014 3.68768997,15.2397619 Z M29.912462,27.6958469 C30.7422492,27.5513478 32.6334347,28.0593831 32.9384498,27.5070173 C31.9308511,27.4855713 29.4533435,26.8946287 29.3360182,27.6470703 L29.5566869,27.677147 L29.912614,27.6958469 L29.912462,27.6958469 Z M4.06960486,12.170627 C4.90638298,11.8884287 2.54589666,11.5856998 3.89863222,12.1176658 L4.06960486,12.170627 Z M1.45668693,9.65595013 C1.3056231,8.91030856 1.32644377,7.60105508 2.7724924,8.04318313 C0.842401216,8.37324264 4.10911854,10.1080166 3.69665653,8.73821731 C4.50851064,8.77260941 5.28480243,8.32538139 4.85835866,9.00328492 C6.45835866,8.85198585 7.56656535,7.65833165 9.11170213,7.82597677 C10.3150456,7.68840839 11.6308511,7.58483979 12.9278116,7.16755774 C13.9940729,7.10165046 15.0205167,6.11395653 14.4364742,5.52824475 C12.9825228,5.42232232 11.4598784,5.57872136 9.85303951,5.85411967 C8.07234043,6.17214848 6.45455927,6.77747553 4.65759878,7.03757393 C2.90547112,7.24026499 5.00942249,7.59503973 4.50744681,7.67454693 C3.59407295,7.94732987 5.59772036,8.13119028 4.38920973,8.41927312 C3.64300912,8.29713541 2.86580547,8.07652908 3.18480243,7.39927939 C1.50729483,7.58732439 0.0325227964,8.18585148 1.35835866,9.65490398 L1.45683891,9.6556886 L1.45668693,9.65595013 Z M5.50045593,7.88403795 C5.89300912,6.63742254 7.60714286,8.91030856 6.1443769,8.04998309 C5.97036474,7.93699916 5.68206687,7.84546127 5.50045593,7.88403795 Z M6.29726444,7.28982622 C6.34924012,6.71601437 7.94817629,7.59333974 6.56079027,7.49591726 L6.29726444,7.28969545 L6.29726444,7.28982622 Z M7.53571429,6.80336767 C8.13586626,6.18339456 10.931307,6.40727011 8.88510638,6.74242959 C8.33647416,6.38673947 7.9162614,6.95192061 7.53571429,6.80336767 Z M12.2203647,6.31403222 C12.5987842,5.46076824 13.6899696,5.97128818 12.3962006,6.14220251 C12.4238602,6.23374041 12.3574468,6.58354595 12.2203647,6.31403222 Z M36.5677812,27.707093 C37.4712766,27.7097083 39.3054711,27.4649098 37.3398176,27.4658252 C37.0308511,27.5070173 35.5422492,27.4985173 36.5677812,27.707093 Z M5.43586626,10.6903284 C6.16732523,10.6475671 6.57963526,9.99673265 5.29361702,10.0336093 C3.30121581,9.85667967 7.05151976,10.6211519 5.03829787,10.4022455 C4.76808511,10.55616 5.41975684,10.7330897 5.43586626,10.6903284 Z M4.41109422,5.71982049 C5.71702128,5.33849976 7.50182371,4.90918701 8.11808511,5.90812703 C7.49088146,5.25912332 7.86474164,4.61940418 8.45699088,5.5694368 C9.29468085,6.52980013 9.71382979,5.13253949 9.16930091,4.81006455 C9.79057751,5.47358354 10.4960486,5.78755854 9.58465046,4.85217198 C10.5755319,3.82681675 7.60212766,4.98634039 6.92644377,4.97430969 C6.60151976,5.09984738 3.56945289,5.63952868 4.4112462,5.71982049 L4.41109422,5.71982049 Z M5.17629179,4.45960516 C5.92082067,3.9765466 7.75121581,4.74768801 6.57659574,3.97890043 C6.46139818,3.89180866 4.00486322,4.56212761 5.17629179,4.45960516 Z M7.89042553,4.55611226 C8.76094225,4.57494292 7.51489362,3.54880307 8.55227964,4.01394637 C8.38237082,3.53520316 7.34392097,3.44536525 6.83617021,3.25392027 C6.54893617,3.69173296 7.42021277,4.56212761 7.89042553,4.55611226 Z M6.76170213,2.6644162 C8.1656535,2.50461719 6.40364742,2.14461171 6.4781155,2.65173167 L6.76155015,2.6644162 L6.76170213,2.6644162 Z M4.69027356,1.27068631 C3.70136778,0.159939297 6.54969605,1.45716209 5.54483283,0.294107703 C4.69924012,-0.284673353 3.88738602,0.946642152 4.69027356,1.27068631 Z M17.3756839,7.14964247 C17.8291793,6.45853133 15.5045593,6.21752512 17.0706687,6.90484397 C17.2147416,6.94603603 17.1822188,7.19737294 17.3756839,7.14964247 Z M8.17112462,32.887615 C8.07082067,33.2283975 8.00866261,33.8002478 7.98541033,34.6029044 C7.98541033,34.7606111 7.90288754,34.8395953 7.73738602,34.8395953 C7.5718845,34.8395953 7.45668693,34.7706803 7.39148936,34.6335042 C7.21428571,34.2623834 7.04650456,34.0035927 6.88632219,33.8558244 C6.69756839,33.6832101 6.44650456,33.5788569 6.13328267,33.5432879 C5.79665653,33.4975189 4.95805471,33.4746344 3.61732523,33.4746344 C3.31033435,33.4746344 3.10927052,33.5027496 3.01504559,33.5588493 C2.95592705,33.5941568 2.92644377,33.6705255 2.92644377,33.7875633 L2.92644377,37.2410267 C2.92644377,37.3579336 3.01200608,37.413641 3.18297872,37.4088025 C3.70896657,37.4035718 4.47082067,37.3727105 5.46869301,37.3172646 C5.66382979,37.2966032 5.79544073,37.2420728 5.86322188,37.1530195 C5.93161094,37.064097 5.99802432,36.8344676 6.06261398,36.4632161 C6.10364742,36.2598711 6.24285714,36.1810178 6.47902736,36.2270483 C6.67963526,36.2626173 6.76595745,36.3414706 6.73632219,36.4632161 C6.57066869,37.1547195 6.51717325,38.0542755 6.57629179,39.1622764 C6.5825228,39.2940909 6.48510638,39.3654905 6.28404255,39.3756904 C6.11838906,39.3909904 6.01504559,39.3146216 5.97401216,39.1468457 C5.82082067,38.5117035 5.53525836,38.1722286 5.11930091,38.1288135 C4.70288754,38.0859215 4.02462006,38.0642139 3.08586626,38.0642139 C2.97948328,38.0642139 2.92644377,38.0970368 2.92644377,38.1632056 L2.92644377,41.5939153 C2.92644377,41.8481291 3.03541033,42.0211357 3.25379939,42.1122813 C3.42553191,42.1885193 3.79452888,42.2573035 4.3612462,42.3182416 C4.65106383,42.3436107 4.77765957,42.4531946 4.74270517,42.6459473 C4.70699088,42.8137232 4.44741641,42.879892 3.96261398,42.844323 C2.56291793,42.7475543 1.40790274,42.7527851 0.498632219,42.8598844 C0.2443769,42.8899611 0.117781155,42.8010386 0.117781155,42.592986 C0.117781155,42.4605176 0.2443769,42.3844104 0.498632219,42.3641413 C1.0775076,42.3080416 1.36671733,41.8708828 1.36671733,41.0529263 L1.36671733,34.5265357 C1.36671733,34.1915069 1.29711246,33.9336316 1.15866261,33.7530404 C1.01960486,33.57258 0.761094225,33.4084656 0.383586626,33.2612204 C0.147112462,33.1696825 0.058662614,33.0453217 0.117629179,32.887615 C0.147112462,32.7912386 0.194528875,32.7376236 0.259118541,32.7276852 C0.318237082,32.7122545 0.475075988,32.7224544 0.728571429,32.758285 C1.10091185,32.8090231 1.97826748,32.834523 3.36018237,32.834523 C4.99072948,32.834523 6.39908815,32.8037924 7.58662614,32.7429851 C7.98221884,32.7223237 8.18039514,32.7504389 8.18039514,32.8266769 C8.18039514,32.8473383 8.17735562,32.8673459 8.17112462,32.887615 Z M13.9168693,42.5653939 C13.9168693,42.7687388 13.7838906,42.8576613 13.5182371,42.8321615 C12.7036474,42.7659927 11.6933131,42.7759311 10.4884498,42.862369 C10.2460486,42.8830304 10.0972644,42.8776689 10.0407295,42.8475922 C9.98449848,42.8168616 9.95683891,42.7331698 9.95683891,42.5954706 C9.95683891,42.473856 10.1174772,42.371072 10.4393617,42.2868572 C10.7617021,42.2032961 10.9221884,41.9528746 10.9221884,41.5362464 L10.9221884,34.6366427 C10.9221884,34.2247221 10.8527356,33.9223855 10.7142857,33.7291098 C10.575228,33.5359648 10.3316109,33.3861042 9.98328267,33.2796587 C9.8,33.2234283 9.70820669,33.1447057 9.70820669,33.0429679 C9.70820669,32.8904919 9.84118541,32.7762003 10.1069909,32.6999623 C10.5088146,32.5881553 10.9253799,32.4156717 11.3566869,32.1815962 C11.7110942,31.9985204 11.9357143,31.9073748 12.0297872,31.9073748 C12.2481763,31.9073748 12.3579027,32.036574 12.3579027,32.2958878 C12.3579027,32.2758803 12.3460486,32.5299633 12.3220365,33.0582678 C12.3048632,33.5613339 12.2987842,34.0568155 12.3048632,34.5451048 L12.3398176,41.3529091 C12.3398176,41.6630918 12.4285714,41.8881442 12.6057751,42.0279357 C12.7829787,42.1675964 13.087538,42.2603112 13.5182371,42.3059494 C13.7838906,42.3311877 13.9168693,42.4176256 13.9168693,42.5652631 L13.9168693,42.5653939 Z M21.9303951,42.1158121 C21.9303951,42.2227806 21.7045593,42.3838873 21.2528875,42.5996552 C20.8007599,42.8158154 20.4389058,42.9238302 20.1674772,42.9238302 C19.9367781,42.9238302 19.7332827,42.8274538 19.556079,42.6341781 C19.3788754,42.4410331 19.2544073,42.3446568 19.1837386,42.3446568 C19.1306991,42.3446568 18.850152,42.4488792 18.3417933,42.6569318 C17.8343465,42.8655074 17.3231003,42.9698607 16.8092705,42.9698607 C16.325076,42.9698607 15.9202128,42.8475922 15.5954407,42.6041014 C15.2410334,42.3344569 15.0638298,41.9685668 15.0638298,41.5059081 C15.0638298,40.6266212 16.2334347,39.9965789 18.5726444,39.615389 C18.9738602,39.5492202 19.1781155,39.4094287 19.1835866,39.1960146 L19.2016717,38.7079869 C19.237234,37.8745997 18.8089666,37.4579715 17.9168693,37.4579715 C17.662766,37.4579715 17.4221884,37.6533395 17.1943769,38.0445986 C16.9674772,38.4363808 16.6407295,38.6470488 16.2155015,38.6777794 C15.731307,38.718056 15.4889058,38.5428263 15.4889058,38.1515672 C15.4889058,37.9074226 15.8493921,37.6232628 16.5699088,37.2976494 C17.3261398,36.9572592 18.0528875,36.7867371 18.749848,36.7867371 C19.9486322,36.7867371 20.5422492,37.277511 20.5305471,38.258405 L20.4948328,41.3990703 C20.4893617,41.7295221 20.6518237,41.8945519 20.9822188,41.8945519 C21.0474164,41.8945519 21.1715805,41.8819981 21.3544073,41.8564983 C21.5378419,41.8311292 21.6442249,41.8183139 21.6738602,41.8183139 C21.8448328,41.8183139 21.9303951,41.9178287 21.9303951,42.1158121 Z M19.2016717,40.3778997 C19.2077508,40.250662 19.1732523,40.1664471 19.0993921,40.1263012 C19.0255319,40.0856322 18.9094225,40.0775246 18.749848,40.1030244 C17.3261398,40.3216692 16.6142857,40.7207745 16.6142857,41.3000786 C16.6142857,41.8846135 16.9834347,42.1767501 17.7217325,42.1767501 C18.0171733,42.1767501 18.3217325,42.1286274 18.6341945,42.032251 C19.0009119,41.9200517 19.1837386,41.7856218 19.1837386,41.6277843 L19.2016717,40.3777689 L19.2016717,40.3778997 Z M28.5176292,41.2387482 C28.5176292,41.7775141 28.2762918,42.2060423 27.7952888,42.523548 C27.3139818,42.8413153 26.6569909,43.0000682 25.8238602,43.0000682 C25.268845,43.0000682 24.7132219,42.94933 24.1582067,42.8475922 C23.6794833,42.7560543 23.4019757,42.6723625 23.325228,42.5961245 C23.2778116,42.5245942 23.2544073,42.1768809 23.2544073,41.5515463 C23.2544073,41.2821633 23.325228,41.1422411 23.4671733,41.1323027 C23.6088146,41.116872 23.7300912,41.1831716 23.8303951,41.3302861 C24.2732523,41.9962897 24.9881459,42.3293569 25.9746201,42.3293569 C26.8069909,42.3293569 27.2235562,42.0799815 27.2235562,41.5817538 C27.2235562,41.3636321 27.1293313,41.1804255 26.9399696,41.0331803 C26.7331307,40.8654044 26.3320669,40.669644 25.7352584,40.44603 C24.8726444,40.1158397 24.2966565,39.8261877 24.0074468,39.5768123 C23.6942249,39.3126601 23.5378419,38.9569699 23.5378419,38.5094804 C23.5378419,37.9603838 23.7829787,37.5338172 24.2732523,37.2288652 C24.7279635,36.9338516 25.3364742,36.7867371 26.0981763,36.7867371 C26.5768997,36.7867371 27.0138298,36.8194292 27.4100304,36.8857288 C27.8352584,36.9518977 28.0566869,37.0329741 28.0744681,37.1297427 C28.1212766,37.4140333 28.2191489,37.8259538 28.3668693,38.3649813 C28.3846505,38.430627 28.3015198,38.4841113 28.118845,38.5247803 C27.9237082,38.5603493 27.793921,38.5322341 27.7287234,38.4410885 C27.26231,37.7851541 26.6717325,37.4574484 25.9566869,37.4574484 C25.1475684,37.4574484 24.7428571,37.6810624 24.7428571,38.1282904 C24.7428571,38.377535 24.8522796,38.5755184 25.0706687,38.7227637 C25.2658055,38.8498706 25.7234043,39.0483771 26.4440729,39.3178908 C27.200152,39.5973429 27.7139818,39.8489414 27.9860182,40.0724246 C28.3404255,40.3619459 28.5176292,40.7511128 28.5176292,41.2387482 Z M38.9411854,42.5729785 C38.9411854,42.7508235 38.8021277,42.8449768 38.5246201,42.855046 C38.1110942,42.8602767 37.5702128,42.8856458 36.9033435,42.931284 C36.5723404,42.9873836 36.3360182,42.9519454 36.1945289,42.8248385 C35.2610942,41.9608515 34.4693009,41.0560647 33.8194529,40.1104782 C33.7665653,40.0294018 33.6987842,39.9887328 33.6158055,39.9887328 C33.5155015,39.9887328 33.3414894,40.0649708 33.093465,40.2175776 C32.8153495,40.3493922 32.6768997,40.5376987 32.6768997,40.7811895 C32.6768997,40.9543269 32.6823708,41.2031792 32.6946809,41.5289234 C32.706535,41.8538829 32.8006079,42.0671662 32.9778116,42.168904 C33.1019757,42.2404344 33.3889058,42.296011 33.837234,42.3368107 C34.1148936,42.3674105 34.2539514,42.456333 34.2539514,42.6035783 C34.2539514,42.720616 34.2317629,42.7931925 34.187386,42.8206539 C34.1433131,42.8486383 34.0262918,42.855046 33.837234,42.8397461 C33.2466565,42.7942387 32.2486322,42.8196077 30.8428571,42.9159841 C30.4884498,42.9413531 30.2963526,42.9031688 30.2668693,42.8015617 C30.2551672,42.7662542 30.2489362,42.7152545 30.2489362,42.6490857 C30.2489362,42.4919021 30.4293313,42.3721182 30.7899696,42.2913033 C31.1147416,42.2196422 31.2770517,41.8919365 31.2770517,41.3075324 L31.2770517,34.6442272 C31.2770517,34.227599 31.2299392,33.937947 31.1349544,33.7754018 C31.0051672,33.5668262 30.7331307,33.4041502 30.3197568,33.2872433 C30.125228,33.2316667 30.0275076,33.1528133 30.0275076,33.0510755 C30.0275076,32.9033072 30.1665653,32.7890156 30.443921,32.7080699 C30.8904184,32.5795654 31.3161202,32.4027442 31.7107903,32.1818578 C32.0358663,31.9991743 32.2369301,31.9075056 32.3132219,31.9075056 C32.5557751,31.9075056 32.6768997,32.0393202 32.6768997,32.3041262 C32.6768997,32.2681649 32.6738602,32.5201557 32.6676292,33.0586601 C32.6612557,33.556781 32.6584188,34.0549309 32.6591185,34.5530816 L32.6768997,39.3253446 C32.6768997,39.4576823 32.7180851,39.523328 32.8006079,39.523328 C32.8892097,39.523328 33.025228,39.4576823 33.2085106,39.3253446 C33.6987842,38.9948928 34.3012158,38.5629647 35.0156535,38.0292987 C35.1577508,37.9023226 35.2284195,37.8005847 35.2284195,37.7243468 C35.2284195,37.5873014 34.9892097,37.4902713 34.5110942,37.4348255 C34.3044073,37.4140333 34.206535,37.3151723 34.2180851,37.1371965 C34.2360182,36.9593515 34.3395137,36.8831135 34.5282675,36.9084825 C34.9541033,36.9594822 35.5743161,36.9874667 36.3889058,36.9926974 C36.956231,36.9974051 37.5203647,37.0001512 38.0816109,37.0001512 C38.2642857,37.0053819 38.356079,37.0991429 38.356079,37.2823495 C38.356079,37.4549638 38.2113982,37.5491171 37.9221884,37.5645477 C37.4668693,37.5793246 37.0386018,37.6682471 36.637538,37.8313153 C36.0762918,38.0494371 35.4764438,38.4332424 34.8384498,38.982339 C34.7916413,39.0129388 34.7676292,39.0509924 34.7676292,39.0966306 C34.7676292,39.1676379 34.8679331,39.3381599 35.0691489,39.6075429 C35.8074468,40.5732677 36.5045593,41.3023017 37.1598784,41.7955602 C37.5794833,42.1054814 37.9720365,42.2604419 38.3381459,42.2604419 C38.6101824,42.2604419 38.7785714,42.2769188 38.8431611,42.3101339 C38.9085106,42.3432184 38.9411854,42.430964 38.9411854,42.5729785 Z" id="Shape"></path>
        </g>
    </g>
</svg>