<?xml version="1.0" encoding="UTF-8"?>
<svg width="46px" height="43px" viewBox="0 0 46 43" version="1.1" xmlns="http://www.w3.org/2000/svg" xmlns:xlink="http://www.w3.org/1999/xlink">
    <!-- Generator: Sketch 48.1 (47250) - http://www.bohemiancoding.com/sketch -->
    <title>icon-2</title>
    <desc>Created with Sketch.</desc>
    <defs></defs>
    <g id="Page-1" stroke="none" stroke-width="1" fill="none" fill-rule="evenodd">
        <g id="icon-2" fill="#848C97" fill-rule="nonzero">
            <path d="M30.1718885,20.1767183 C33.6198762,18.613808 34.1337461,6.71758514 32.0995666,3.21368421 C29.4423529,-1.36055728 16.8112693,-0.441981424 12.8227864,2.8276161 C12.3648297,4.45176471 12.4127554,7.39919505 12.4340557,9.7422291 L24.9533127,9.7422291 L24.9533127,10.839195 L12.4367183,10.839195 C12.4367183,10.8551703 6.86402477,10.873808 6.86402477,10.873808 C-2.7450774,10.873808 -2.545387,31.7427864 10.1336223,31.7427864 C10.1336223,31.7427864 10.5995666,27.1206192 11.4143034,24.8042105 C13.9304025,17.6552941 24.5006811,22.7487307 30.1718885,20.1767183 Z M17.0642105,8.04885449 C15.6211146,8.04885449 14.4522601,6.88 14.4522601,5.43424149 C14.4522601,3.99114551 15.6211146,2.81962848 17.0642105,2.81962848 C18.509969,2.81962848 19.6788235,3.99114551 19.6788235,5.43424149 C19.6814861,6.87733746 18.509969,8.04885449 17.0642105,8.04885449 Z" id="Shape"></path>
            <path d="M35.0230341,11.3131269 C35.0230341,11.3131269 34.6902167,15.9379567 33.8754799,18.2517028 C31.3593808,25.3979567 20.7917647,20.3071827 15.1178947,22.879195 C11.6725697,24.4421053 11.1533746,36.3383282 13.1902167,39.8422291 C15.8447678,44.4191331 28.4758514,43.5005573 32.4669969,40.2282972 C32.9249536,38.6068111 32.8770279,35.6593808 32.8557276,33.3163467 L20.333808,33.3163467 L20.333808,32.2193808 L32.8504025,32.2193808 C32.8504025,32.2034056 39.0195046,32.1847678 39.0195046,32.1847678 C47.8751084,32.1847678 48.6685449,11.3131269 35.0230341,11.3131269 Z M27.7756037,34.5544272 C29.2186997,34.5544272 30.3902167,35.7232817 30.3902167,37.1690402 C30.3902167,38.6121362 29.2186997,39.7809907 27.7756037,39.7809907 C26.3325077,39.7809907 25.1636533,38.6121362 25.1636533,37.1690402 C25.1636533,35.7232817 26.3325077,34.5544272 27.7756037,34.5544272 Z" id="Shape"></path>
        </g>
    </g>
</svg>