<?xml version="1.0" encoding="UTF-8"?>
<svg width="35px" height="43px" viewBox="0 0 35 43" version="1.1" xmlns="http://www.w3.org/2000/svg" xmlns:xlink="http://www.w3.org/1999/xlink">
    <!-- Generator: Sketch 48.1 (47250) - http://www.bohemiancoding.com/sketch -->
    <title>if_Ruby_on_Rails_2_282804</title>
    <desc>Created with Sketch.</desc>
    <defs></defs>
    <g id="Page-1" stroke="none" stroke-width="1" fill="none" fill-rule="evenodd">
        <g id="if_Ruby_on_Rails_2_282804" fill="#848C97" fill-rule="nonzero">
            <g id="layer7" transform="translate(1.966678, 35.321890)">
                <path d="M0.188942478,0.15904249 L0.188942478,7.5246183 L2.06755237,7.5246183 L2.06755237,5.60624778 L3.77725914,7.31595455 L6.65974524,7.31595455 L4.3733504,5.02955971 C4.3733504,5.02955971 6.01816783,5.00284057 6.14253906,2.62420109 C6.14253906,0.441820038 4.49581311,0.15904249 2.59398302,0.15904249 L0.188942478,0.15904249 Z M2.15693425,2.15693425 L3.77725914,2.15693425 L3.77725914,3.4690348 L2.15693425,3.4690348 L2.15693425,2.15693425 Z" id="path3993"></path>
                <path d="M10.2881406,0.188942478 C9.25945378,0.182898864 7.83284264,0.278324358 7.83284264,2.21673423 L7.83284264,7.3359939 L9.7610738,7.3359939 L9.7610738,6.08337525 L11.6298231,6.08337525 L11.6298231,7.30609392 L13.5682329,7.30609392 L13.5682329,1.93840987 C13.5682329,0.254786069 11.6975752,0.188942478 10.6956075,0.188942478 C10.570282,0.188942478 10.4350959,0.189896733 10.2881406,0.188942478 Z M9.79097378,2.03765238 L11.6002412,2.03765238 L11.6002412,4.0555835 L9.79097378,4.0555835 L9.79097378,2.03765238 Z" id="path3997"></path>
                <rect id="rect4001" x="15.5002811" y="0.193713753" width="1.995029" height="7.04621849"></rect>
                <polygon id="path4003" points="19.5848103 0.287230737 19.5848103 7.33344922 24.385985 7.33344922 24.385985 5.46279145 21.5489851 5.46279145 21.5489851 0.256058409"></polygon>
                <path d="M30.7464123,0.224886081 L30.7464123,2.12671618 L27.5350263,2.12671618 L27.5350263,2.8125074 C27.5350263,2.8125074 28.1899633,2.8125074 28.9066088,2.8125074 C29.6232542,2.8125074 31.1201621,2.78133507 31.1201621,5.02637886 C31.1201621,7.27110457 30.0914753,7.39579388 28.0026113,7.39579388 C25.9134291,7.39579388 25.4773346,7.39579388 25.4773346,7.39579388 L25.4773346,5.68067967 C25.4773346,5.68067967 27.503854,5.68067967 28.3766792,5.68067967 C29.2495044,5.68067967 29.2978533,5.39631169 29.2978533,5.14884158 C29.2978533,4.90137146 28.8515801,4.78590662 27.9437655,4.78590662 C27.035951,4.78590662 25.3526453,4.33995147 25.3526453,2.59398302 C25.3526453,0.848014558 26.2254705,0.193077583 27.9714389,0.193077583 C29.7174074,0.193077583 30.7464123,0.224886081 30.7464123,0.224886081 Z" id="path4005"></path>
            </g>
            <g id="layer6" transform="translate(0.058168, 0.014457)">
                <path d="M3.84628358,33.3811102 L20.433143,33.3811102 C20.433143,33.3811102 16.7541721,25.0253358 17.6893419,17.3556708 C18.6248299,9.68600574 24.6732158,6.19375074 28.102808,5.8196828 C31.5320822,5.44529678 33.4030581,7.56565126 33.4030581,7.56565126 L34.151512,6.44312936 C34.151512,6.44312936 29.2253299,1.45460262 22.989592,2.01602261 C16.753854,2.57712451 12.4514366,6.69250799 9.77029826,11.6810347 C7.08884187,16.6698796 5.52990739,20.1614984 4.47004823,25.3994038 C3.41018908,30.6373091 3.84628358,33.3811102 3.84628358,33.3811102 Z" id="path3966"></path>
                <polygon id="path3968" points="0.541698722 25.0253358 3.78425701 25.2747145 3.22283702 28.5169547 0.167630785 28.1428867"></polygon>
                <polygon id="path3970" points="5.65491478 18.1661513 6.52805805 15.7343916 3.6595677 14.6118697 2.72439786 17.2306634"></polygon>
                <polygon id="path3972" points="9.7079536 9.81037697 11.3915774 7.81534797 9.20919635 6.38110279 7.4632279 8.31378713"></polygon>
                <polygon id="path3974" points="14.1350604 2.07836726 15.6316502 3.88668038 17.6893419 2.70181382 16.1927521 1.01819002"></polygon>
                <polygon id="path3976" points="21.4309756 0.0206755237 21.8050435 1.82930672 24.3618106 1.76696207 24.1121139 0.145682921"></polygon>
                <polygon id="path3978" points="30.0984732 1.95367795 30.0361285 3.07588176 31.782097 4.0110516 32.1561649 3.4499497"></polygon>
                <polygon id="path3980" points="29.7240872 6.75517073 29.7240872 7.69034057 31.407711 7.87737454 31.407711 7.12892058"></polygon>
                <polygon id="path3982" points="24.3618106 7.56565126 25.1722911 9.06192301 26.3571577 8.12675317 26.107779 7.12892058"></polygon>
                <polygon id="path3984" points="21.8047254 9.49897177 23.0519366 11.3696295 22.3034827 12.6788673 20.4951695 10.6838383"></polygon>
                <polygon id="path3986" points="19.3109392 14.6742144 18.5001405 16.2954935 20.6201769 18.1041247 21.1189342 16.0461149"></polygon>
                <polygon id="path3988" points="18.4377959 20.3485324 18.3131066 22.5309134 20.9319002 23.6534353 20.8072109 21.5954255"></polygon>
                <polygon id="path3990" points="19.1859318 28.0808602 19.8096964 30.325904 23.1142813 30.5129379 21.9294147 28.0808602"></polygon>
            </g>
        </g>
    </g>
</svg>