<?xml version="1.0" encoding="UTF-8"?>
<svg width="34px" height="43px" viewBox="0 0 34 43" version="1.1" xmlns="http://www.w3.org/2000/svg" xmlns:xlink="http://www.w3.org/1999/xlink">
    <!-- Generator: Sketch 48.1 (47250) - http://www.bohemiancoding.com/sketch -->
    <title>java-logo-3e01e7f6201c5b09</title>
    <desc>Created with Sketch.</desc>
    <defs></defs>
    <g id="Page-1" stroke="none" stroke-width="1" fill="none" fill-rule="evenodd">
        <g id="java-logo-3e01e7f6201c5b09" fill="#848C97" fill-rule="nonzero">
            <path d="M19.593926,0 C21.9550537,5.46322032 11.121341,8.83748652 10.1185057,13.3923166 C9.19294357,17.5710834 16.5485005,22.4307136 16.5519348,22.4307136 C15.4349068,20.6997923 14.6261132,19.2710954 13.5065093,16.5785512 C11.6107384,12.0237211 25.0391159,7.90505571 19.593926,0 Z M26.7743301,7.56934627 C26.7743301,7.56934627 17.2894653,8.17036061 16.806078,14.2406054 C16.5914301,16.9434527 19.2985703,18.3858871 19.379278,20.3546384 C19.4393794,21.9576295 17.7591151,23.2961743 17.7591151,23.2961743 C17.7591151,23.2961743 20.8071163,22.7226349 21.7635877,20.2704964 C22.8196558,17.5504772 19.7141288,15.6924843 20.0257977,13.5159538 C20.328022,11.4338685 26.7743301,7.57020486 26.7743301,7.57020486 L26.7743301,7.56934627 Z M29.0753564,21.5927279 C28.0819656,21.5489397 26.978675,21.8777804 25.979274,22.5955633 C27.9377221,22.1757118 29.5939459,23.3734475 29.5939459,24.7549219 C29.5939459,27.8673176 25.0975001,30.8079949 25.0975001,30.8079949 C25.0975001,30.8079949 32.0598219,30.0137974 32.0598219,24.9025997 C32.0598219,22.7904636 30.7247115,21.6691426 29.0744978,21.5927279 L29.0753564,21.5927279 Z M11.8631644,21.5987381 C11.8631644,21.5987381 3.1724971,21.4819696 3.1724971,23.9409768 C3.1724971,26.5098838 14.5522743,26.6910467 22.6797053,25.1086618 C22.6797053,25.1086618 24.849367,23.6224392 25.4254822,23.0686474 C20.0996366,24.1556248 7.94540953,24.2998682 7.94540953,23.3605687 C7.94540953,22.4916737 11.8631644,21.6004553 11.8631644,21.6004553 L11.8631644,21.5987381 Z M9.7630486,26.381095 C8.43223114,26.381095 6.44287369,27.4114053 6.44287369,28.4039375 C6.44287369,30.3993051 16.4806717,31.9387604 23.9135019,29.0212651 L21.3411605,27.4448904 C16.3029432,29.0581846 7.01641308,28.5413122 9.7630486,26.3819536 L9.7630486,26.381095 Z M11.0011381,30.8457729 C9.17233737,30.8457729 7.98919772,31.9722455 7.98919772,32.8042211 C7.98919772,35.3662593 18.8993251,35.6246955 23.2223354,33.0188691 L20.4748413,31.2716345 C17.2465357,32.6367957 9.13627651,32.8213929 11.0011381,30.8457729 Z M4.9137215,33.1665469 C1.93526616,33.1064454 0,34.4441316 0,35.554291 C-0.00343436764,41.4571103 30.500619,41.1720578 30.500619,35.1387325 C30.500619,34.1393315 29.3200551,33.662813 28.8941935,33.4352861 C31.3858272,39.2033066 3.95123997,38.7576974 3.95123997,35.3533805 C3.95123997,34.5789306 5.9637794,33.8165009 7.83465117,34.1831197 L6.24883192,33.2807396 C5.80684483,33.2129008 5.36080915,33.1747511 4.9137215,33.1665469 Z M33.7169043,37.1375344 C29.0779322,41.5309492 17.3263847,43.1339403 5.50700851,40.4207899 C17.3229504,45.2546624 33.6559443,42.5337846 33.7169043,37.1375344 Z" id="surface1"></path>
        </g>
    </g>
</svg>