<?xml version="1.0" encoding="UTF-8"?>
<svg width="44px" height="43px" viewBox="0 0 44 43" version="1.1" xmlns="http://www.w3.org/2000/svg" xmlns:xlink="http://www.w3.org/1999/xlink">
    <!-- Generator: Sketch 48.1 (47250) - http://www.bohemiancoding.com/sketch -->
    <title>logo_with_border</title>
    <desc>Created with Sketch.</desc>
    <defs></defs>
    <g id="Page-1" stroke="none" stroke-width="1" fill="none" fill-rule="evenodd">
        <g id="logo_with_border" fill-rule="nonzero">
            <path d="M21.4973567,1.17800938 C21.1357177,1.19622694 20.7813883,1.28589146 20.4551552,1.44174273 L6.23356078,8.23696906 C5.48792254,8.59306412 4.94634082,9.26652668 4.76211054,10.0667329 L1.25354748,25.3305282 C1.08986482,26.0410375 1.22304958,26.7870034 1.62277417,27.3985615 C1.67074836,27.4725609 1.72234414,27.5441879 1.77737649,27.6131859 L11.6209972,39.8522325 C12.137141,40.4937663 12.9197134,40.8673124 13.7472337,40.8671512 L29.5330392,40.8635135 C30.36025,40.8641163 31.1427672,40.491266 31.6592757,39.8504136 L41.4992582,27.6095482 C42.0156781,26.9676928 42.2091643,26.1274673 42.024906,25.3268905 L38.5108864,10.0630952 C38.3266561,9.26288898 37.7850744,8.58942642 37.0394362,8.23333136 L22.8160235,1.44174273 C22.4056714,1.24569419 21.9522445,1.15500881 21.4973567,1.17800938 Z" id="path3055" fill="#848C97"></path>
            <path d="M21.4897214,0.0727647883 C21.1083883,0.0927964356 20.7349045,0.188294968 20.3911355,0.353669433 L5.37652276,7.54592277 C4.58940308,7.92293268 4.01769891,8.63591564 3.82322424,9.48307038 L0.120044148,25.6423837 C-0.0532749318,26.3949256 0.0871388442,27.185204 0.509278204,27.8330751 C0.560110146,27.9110745 0.614740712,27.9865587 0.67297477,28.059258 L11.064069,41.0173528 C11.6089394,41.6964557 12.4350123,42.0918766 13.3085308,42.0917219 L29.9728412,42.0880738 C30.8460501,42.0886715 31.6720679,41.6939482 32.217303,41.0155287 L42.6047595,28.0556099 C43.1493879,27.3764389 43.3535588,26.4875997 43.159509,25.6405596 L39.4508723,9.47942227 C39.2558952,8.63295109 38.6842599,7.9207253 37.8975738,7.54409871 L22.882961,0.351845377 C22.4494029,0.144145595 21.9703103,0.0481782972 21.4897214,0.0727647883 Z M21.4969968,1.17861527 C21.9518846,1.15561471 22.4053115,1.24630009 22.8156636,1.44234863 L37.0390763,8.23393726 C37.7847145,8.59003232 38.3262962,9.26349487 38.5105265,10.0637011 L42.0245461,25.3274964 C42.2088044,26.1280732 42.0153182,26.9682987 41.4988983,27.6101541 L31.6589158,39.8510195 C31.1424073,40.4918719 30.3598901,40.8647222 29.5326793,40.8641194 L13.7468738,40.8677571 C12.9193535,40.8679183 12.1367811,40.4943722 11.6206373,39.8528384 L1.77701716,27.6137918 C1.72198482,27.5447938 1.67038904,27.4731667 1.62241485,27.3991674 C1.22269026,26.7876093 1.0895055,26.0416434 1.25318815,25.3311341 L4.76175121,10.0673388 C4.9459815,9.26713257 5.48756321,8.59367002 6.23320145,8.23757496 L20.4547953,1.44234863 C20.7810284,1.28649735 21.1353578,1.19683284 21.4969968,1.17861527 Z" id="path3054-2-9" fill="#FFFFFF"></path>
            <path d="M21.6382754,6.37248002 C21.1681703,6.37252775 20.7869974,6.79596144 20.7870533,7.31828182 C20.7870539,7.32629815 20.7886946,7.33395827 20.7888692,7.34192688 C20.7881766,7.41289756 20.7847484,7.49839809 20.7870533,7.56018896 C20.7982644,7.86144885 20.8639339,8.09202034 20.9034597,8.36957754 C20.975066,8.96363805 21.0350671,9.45607806 20.99804,9.91378181 C20.9620302,10.0863776 20.8349033,10.2442254 20.7215747,10.3539437 L20.7015673,10.7140761 C20.1907281,10.7563998 19.6764718,10.8339014 19.1628196,10.9505267 C16.9525749,11.4523654 15.0495931,12.5908722 13.600774,14.128059 C13.506763,14.0639231 13.3422918,13.9459329 13.2933854,13.9097969 C13.1414068,13.9303205 12.9878062,13.9772131 12.7877449,13.8606879 C12.40681,13.604266 12.0598629,13.2503148 11.64005,12.823943 C11.4476896,12.6199878 11.3083895,12.4257741 11.079844,12.2291788 C11.027943,12.1845328 10.9487366,12.1241482 10.8906835,12.0782142 C10.7120066,11.9357577 10.5012632,11.8614642 10.2977382,11.8544955 C10.0360629,11.8455357 9.78415646,11.9478448 9.61930689,12.1546059 C9.32624143,12.5221814 9.42007027,13.0839979 9.82847472,13.4096129 C9.83261879,13.412913 9.83703176,13.4154786 9.84120667,13.4187072 C9.89732739,13.4642 9.96605026,13.5224911 10.0176352,13.5605775 C10.2601605,13.7396427 10.4817011,13.8313069 10.7233493,13.9734566 C11.2324529,14.2878594 11.654506,14.5485545 11.9892694,14.8628746 C12.119995,15.0022231 12.1428432,15.2477679 12.1602414,15.3539643 L12.433069,15.5976903 C10.972551,17.7956582 10.2966114,20.510593 10.6960694,23.2768781 L10.3395747,23.3805526 C10.2456172,23.5018836 10.1128493,23.6927978 9.97398278,23.7497793 C9.53599596,23.8877332 9.04306645,23.9383921 8.44796701,24.0007807 C8.1685735,24.0240125 7.92750331,24.0101485 7.63130304,24.0662593 C7.56611077,24.0786089 7.47527649,24.1022738 7.4039467,24.119006 C7.40146724,24.1195298 7.39915075,24.1202632 7.39667129,24.120822 C7.39278332,24.1217241 7.3876754,24.1236099 7.38393934,24.1244597 C6.8822194,24.2456847 6.55991323,24.7068411 6.66367445,25.1612046 C6.76746011,25.6156745 7.25753008,25.8920491 7.76226029,25.7832515 C7.76590381,25.7824192 7.77119448,25.7822795 7.77499224,25.7814356 C7.78069034,25.7801318 7.78570688,25.7773672 7.7913619,25.7759819 C7.86172087,25.7605371 7.94989409,25.7433532 8.01144284,25.726873 C8.30265336,25.6489022 8.51355856,25.534339 8.77536015,25.434038 C9.33858925,25.232028 9.80507586,25.0632707 10.2595423,24.9975138 C10.4493535,24.9826476 10.6493357,25.114628 10.7488132,25.1703046 L11.1198587,25.1066449 C11.9737105,27.7538916 13.7631092,29.8935701 16.0289369,31.2361718 L15.8743345,31.6072174 C15.9300595,31.7512948 15.9915215,31.9462337 15.9500115,32.0885185 C15.7847912,32.516964 15.5017903,32.9691897 15.1795336,33.4733582 C15.0234995,33.7062829 14.8638084,33.887044 14.723002,34.1536084 C14.6893082,34.2173927 14.6463961,34.3153738 14.613871,34.3827836 C14.3950944,34.8508749 14.5555723,35.390002 14.9758223,35.5923193 C15.3987124,35.7959072 15.9236309,35.5811827 16.1507999,35.1121427 C16.1511491,35.1114792 16.1522957,35.1109903 16.1526158,35.1103268 C16.1528486,35.109803 16.152383,35.1090172 16.1526158,35.1085109 C16.1849727,35.0420108 16.2308136,34.9546 16.2581091,34.8920676 C16.3787138,34.6157758 16.4188437,34.3790027 16.503654,34.1117807 C16.7288783,33.5460372 16.8526213,32.9524289 17.1626646,32.5825428 C17.2475645,32.4812558 17.3859794,32.4423021 17.5294858,32.4038798 L17.722284,32.0546605 C19.6975989,32.8128622 21.9086474,33.0163209 24.1173631,32.5148297 C24.6212267,32.4004272 25.1076584,32.2523652 25.5779003,32.0746678 C25.6320863,32.1707806 25.7327866,32.3555391 25.7597854,32.402061 C25.9056188,32.4495071 26.0647959,32.4740083 26.1944907,32.6657943 C26.4264532,33.0620989 26.5850867,33.5309364 26.7783418,34.0972299 C26.863166,34.3644473 26.9050863,34.6012308 27.0257055,34.8775168 C27.0531972,34.9404898 27.0988087,35.0291281 27.1311988,35.0957789 C27.3578899,35.5663426 27.8844719,35.7818011 28.3079952,35.5777743 C28.7281934,35.3753494 28.8888483,34.8362711 28.6699465,34.3682386 C28.6374173,34.3008311 28.5926934,34.202846 28.5589966,34.1390634 C28.4181763,33.8725066 28.2585108,33.693548 28.1024651,33.4606321 C27.7801816,32.9564804 27.5128851,32.5376628 27.347642,32.109226 C27.2785484,31.8882534 27.359299,31.7508257 27.4131207,31.6072232 C27.3808889,31.5702775 27.3119163,31.3616004 27.2712503,31.2634604 C29.6260014,29.8730925 31.3628531,27.6536214 32.1785096,25.090281 C32.2886534,25.1075918 32.4800919,25.1414626 32.5422797,25.1539408 C32.6703,25.0695054 32.7880102,24.9593372 33.0188186,24.9775123 C33.473288,25.0432453 33.9397612,25.2120556 34.5030008,25.4140365 C34.7648076,25.5143241 34.9757041,25.6307346 35.2669181,25.7086903 C35.3284674,25.725167 35.4166389,25.7405391 35.4869991,25.7559804 C35.4926564,25.7573656 35.4976677,25.7601361 35.5033687,25.761434 C35.5071694,25.7622838 35.5124572,25.7624177 35.5161007,25.76325 C36.02086,25.8719125 36.5110173,25.5956998 36.6146865,25.141203 C36.7183313,24.6868128 36.3961742,24.2255493 35.8944216,24.1044581 C35.8214389,24.0878626 35.7179349,24.0596777 35.6470579,24.0462549 C35.3508547,23.9901598 35.1097886,24.0039935 34.8303939,23.9807763 C34.2352916,23.9184185 33.742372,23.8677054 33.3043782,23.7297749 C33.1257956,23.6604967 32.9987513,23.4479991 32.9369674,23.3605482 L32.5932046,23.2605114 C32.771438,21.9710527 32.7233791,20.6290657 32.4149573,19.2863225 C32.1036637,17.9310774 31.553528,16.6915739 30.8198252,15.5995121 C30.908006,15.5193494 31.0745335,15.3718845 31.1217544,15.3285033 C31.1355579,15.1757682 31.1236984,15.0156302 31.2818133,14.8465079 C31.6165598,14.5321703 32.0386467,14.2715194 32.5477334,13.9570899 C32.7893739,13.8149274 33.0127504,13.7232887 33.2552663,13.5442108 C33.3101083,13.5037153 33.3849955,13.4395852 33.4426079,13.3932462 C33.8509257,13.0675217 33.9449355,12.505739 33.6517758,12.1382392 C33.358616,11.7707394 32.7905357,11.736123 32.382218,12.0618474 C32.3240985,12.1078775 32.2452349,12.167924 32.1930575,12.212812 C31.9645225,12.4094202 31.8233826,12.6036112 31.6310326,12.8075762 C31.2112424,13.2339701 30.8642593,13.5896978 30.4833378,13.84614 C30.3182729,13.942237 30.0764996,13.9089867 29.9667813,13.9025244 L29.6430258,14.1335184 C27.7968894,12.197646 25.2833332,10.9599609 22.5768024,10.7195327 C22.5692325,10.6061109 22.5593152,10.401093 22.556795,10.3393929 C22.445993,10.233367 22.3121424,10.1428487 22.2785109,9.91378181 C22.2414837,9.45607806 22.3033037,8.96363805 22.37491,8.36957754 C22.4144358,8.09202034 22.4801053,7.86144885 22.4913164,7.56018896 C22.4938657,7.49170531 22.489774,7.39233029 22.4895005,7.31828182 C22.4894446,6.79596144 22.1083834,6.37243229 21.6382783,6.37248002 L21.6382754,6.37248002 Z M20.5724289,12.9749076 L20.3196086,17.4401861 L20.3014201,17.4492804 C20.2844632,17.8487495 19.9556953,18.1677264 19.5520536,18.1677264 C19.3867093,18.1677264 19.2340929,18.1146282 19.1100729,18.0240372 L19.1027975,18.0276749 L15.441451,15.4321749 C16.5667317,14.3256647 18.0060544,13.5079537 19.6648224,13.1313288 C19.9678278,13.0625308 20.2706981,13.0114825 20.5724289,12.9749076 Z M22.7059408,12.9749076 C24.642564,13.2130938 26.4335668,14.0900127 27.8059982,15.4339938 L24.1682968,18.0131241 L24.1555648,18.0076705 C23.8326854,18.2434919 23.3777701,18.1849802 23.1260953,17.8694378 C23.0229988,17.7401708 22.9689047,17.5881771 22.9623988,17.4347325 L22.9587611,17.4329165 L22.7059408,12.9749076 Z M14.1136899,17.100061 L17.4567376,20.0902516 L17.4530999,20.1084402 C17.7548469,20.3707603 17.7993439,20.825966 17.5476801,21.1415474 C17.4445906,21.2708196 17.3065977,21.3575244 17.1584461,21.3980053 L17.1548084,21.4125561 L12.8695961,22.6493746 C12.6514923,20.6550313 13.1215316,18.716371 14.1136899,17.100061 Z M29.1392158,17.101877 C29.635928,17.9069766 30.0120634,18.8061919 30.2359828,19.7810441 C30.4572168,20.7442073 30.5127386,21.7056484 30.4215056,22.6348209 L26.1144671,21.3943647 L26.1108294,21.3761762 C25.7251457,21.2707678 25.4881172,20.8784444 25.5779061,20.4849393 C25.6146923,20.3237385 25.7002621,20.1873672 25.8161755,20.086611 L25.8143596,20.0775168 L29.1392187,17.101877 L29.1392158,17.101877 Z M20.9525687,20.3212428 L22.3221633,20.3212428 L23.1733854,21.3852705 L22.8678185,22.7130315 L21.6382754,23.304158 L20.4050946,22.7112126 L20.0995277,21.3834516 L20.9525687,20.3212428 Z M25.3432744,23.9625819 C25.4014758,23.9596427 25.4594235,23.9648868 25.5160652,23.9753139 L25.5233406,23.9662196 L29.9558798,24.7155861 C29.3071758,26.5381095 28.0658576,28.116993 26.407302,29.1735893 L24.6866692,25.0175154 L24.6921229,25.01024 C24.5340656,24.6429782 24.6922393,24.2122994 25.055893,24.0371548 C25.1489978,23.9923145 25.2462694,23.967485 25.3432714,23.9625819 L25.3432744,23.9625819 Z M17.8987183,23.9807704 C18.2369803,23.985514 18.5403867,24.2202913 18.6189832,24.5646215 C18.6557787,24.72582 18.6378702,24.8855396 18.5771496,25.0266096 L18.5898816,25.0429793 L16.8874373,29.1572196 C15.2957445,28.1358345 14.0279554,26.6065198 13.3497726,24.7301399 L17.744116,23.9844111 L17.7513914,23.9935053 C17.8005446,23.98446 17.8503951,23.9800953 17.8987183,23.9807734 L17.8987183,23.9807704 Z M21.6109927,25.7832544 C21.7288222,25.7789241 21.8483832,25.8031006 21.9620309,25.8578273 C22.1110026,25.9295645 22.2260832,26.0425172 22.2985182,26.177945 L22.3148879,26.177945 L24.4811391,30.0921118 C24.2000007,30.1863562 23.9109751,30.2669007 23.6153662,30.334019 C21.9586388,30.7101806 20.3071753,30.5962053 18.8117814,30.0866553 L20.9725761,26.1797639 L20.9762138,26.1797639 C21.1058713,25.9373818 21.3517683,25.7927782 21.6109927,25.7832544 Z" id="path3059" fill="#FFFFFF"></path>
        </g>
    </g>
</svg>