<?xml version="1.0" encoding="UTF-8"?>
<svg width="80px" height="43px" viewBox="0 0 80 43" version="1.1" xmlns="http://www.w3.org/2000/svg" xmlns:xlink="http://www.w3.org/1999/xlink">
    <!-- Generator: Sketch 48.1 (47250) - http://www.bohemiancoding.com/sketch -->
    <title>mysql-logo-3f4de266bff78add</title>
    <desc>Created with Sketch.</desc>
    <defs></defs>
    <g id="Page-1" stroke="none" stroke-width="1" fill="none" fill-rule="evenodd">
        <g id="mysql-logo-3f4de266bff78add" fill="#848C97" fill-rule="nonzero">
            <path d="M49.6261461,0.0763087844 C48.8805457,0.0572315883 48.2287415,0.34338953 47.8933008,1.17006803 C47.3209849,2.55316474 48.7438258,3.90764567 49.2541408,4.61509169 C49.6070689,5.10791925 50.0665114,5.65956818 50.320874,6.2112171 C50.4893892,6.57686335 50.5148255,6.94409938 50.6563147,7.3304126 C51.0108326,8.27950311 51.5767894,9.36054422 52.0298728,10.2428645 C52.2587992,10.6879991 52.5131618,11.1553904 52.8056788,11.552832 C52.9853224,11.7944765 53.2905575,11.9057601 53.3398403,12.2793552 C53.0409642,12.7006433 53.021887,13.3540373 52.8549615,13.886609 C52.0982328,16.2776176 52.3828009,19.2520704 53.4829193,21.016711 C53.824719,21.5635907 54.6243715,22.7241201 55.7181307,22.2837548 C56.6751701,21.8926723 56.4637311,20.6812703 56.7355812,19.6065883 C56.7991718,19.3713029 56.7610175,19.1900695 56.8850192,19.0295031 L56.8850192,19.0787859 C57.1711772,19.6622301 57.4636942,20.2472641 57.7546214,20.8243493 C58.4064256,21.867236 59.5558267,22.9546362 60.5239944,23.6922878 C61.0279503,24.0722419 61.4253919,24.7304052 62.0771961,24.9529725 L62.0771961,24.9052795 L62.0279133,24.9052795 C61.9039116,24.7049689 61.7051908,24.6238909 61.5430346,24.4696835 C61.1394833,24.0771273 60.7673933,23.6534762 60.4301982,23.2026398 C59.536374,21.9735731 58.7416387,20.6754168 58.0534975,19.3204303 C57.7116977,18.6686261 57.4128217,17.948462 57.1282535,17.2855294 C57.0169698,17.023218 57.0169698,16.6384945 56.7864537,16.5017746 C56.4685004,16.9930124 56.0106477,17.3840949 55.7690033,17.9611801 C55.38269,18.8800651 55.3270482,20.0040299 55.1839692,21.1661491 C55.0965321,21.1979444 55.1346865,21.1725081 55.090173,21.2138421 C54.4145223,21.0469166 54.1712881,20.3521887 53.9232845,19.7560263 C53.2905575,18.2457483 53.1665558,15.8134058 53.7309228,14.0805605 C53.8740018,13.6258873 54.525806,12.2109953 54.2650843,11.7944765 C54.1410825,11.3779577 53.7182047,11.1426723 53.4892783,10.824719 C53.1824206,10.4006516 52.921806,9.94497586 52.7118826,9.4654688 C52.1904392,8.28586217 51.7007912,6.92025288 51.1475525,5.72792813 C50.8868308,5.15561224 50.4464655,4.58329636 50.0792295,4.07457113 C49.6754289,3.51815291 49.2287045,3.10640343 48.912341,2.42439367 C48.8058267,2.18751849 48.6516193,1.80279503 48.8185448,1.55479148 C48.8678276,1.38627625 48.9425466,1.3179163 49.1110618,1.26227448 C49.3908607,1.04447649 50.1730257,1.33063443 50.470312,1.4546362 C51.246118,1.77735877 51.899512,2.08895297 52.5576752,2.52295918 C52.8740387,2.73439811 53.1904022,3.13819876 53.5751257,3.25584147 L54.0107217,3.25584147 C54.6990905,3.41163857 55.4637681,3.29876516 56.0964951,3.49748595 C57.226819,3.83928571 58.2395001,4.3734472 59.152026,4.95053239 C61.9762157,6.74344031 64.2720609,9.25603005 65.8036084,12.2300725 C66.057971,12.7133614 66.1692547,13.179163 66.3918219,13.689478 C66.833777,14.7196466 67.3997338,15.7879695 67.8464581,16.7942916 C68.2868234,17.805383 68.7208296,18.8180642 69.3487873,19.655871 C69.677869,20.0978261 70.9576309,20.3394706 71.5347161,20.5811151 C71.9385167,20.7559894 72.6093981,20.9356329 72.9877625,21.1661491 C73.7270038,21.6065143 74.4344499,22.1343168 75.1244085,22.6255546 C75.4725673,22.8671991 76.5281721,23.3950015 76.583814,23.8353668 C74.8764049,23.7924431 73.5712067,23.9466504 72.4599601,24.418811 C72.1435966,24.5555309 71.6332816,24.5555309 71.5855886,24.9529725 C71.752514,25.1342059 71.7827196,25.4076457 71.9194395,25.630213 C72.1865203,26.0594499 72.6348344,26.636535 73.038635,26.9401804 C73.4790003,27.2692621 73.9257246,27.6237799 74.3978852,27.916297 C75.229333,28.4186631 76.1625259,28.7111801 76.9685374,29.2199054 C77.440698,29.5235507 77.9192177,29.9035049 78.3786602,30.2373558 C78.6075865,30.4122301 78.7570245,30.6729518 79.0559006,30.7778764 L79.0559006,30.7301834 C78.9001035,30.5298728 78.8635389,30.256433 78.7204599,30.0513531 L78.0797841,29.4122671 C77.4471345,28.5950765 76.6958825,27.8770467 75.8509317,27.2819802 C75.1864093,26.8050503 73.7015676,26.1580154 73.4297175,25.3885685 L73.378845,25.3392857 C73.8446466,25.2884132 74.3978852,25.1151287 74.8318915,24.997486 C75.5647737,24.8051242 76.2118086,24.854407 76.9621783,24.6620453 C77.3039781,24.56189 77.6457779,24.4633245 77.9875776,24.3695282 L77.9875776,24.1708075 C77.6092133,23.786084 77.3357734,23.2646406 76.9192547,22.9101227 C75.8318545,21.9848787 74.6458888,21.0596347 73.4217687,20.2901878 C72.746118,19.8609509 71.9083112,19.5827418 71.1929163,19.2218648 C70.9512718,19.0978631 70.528394,19.0358622 70.3662378,18.8307823 C69.9894632,18.3538524 69.7843833,17.7433821 69.4918663,17.1853741 C68.8702592,15.9751652 68.2880982,14.7450982 67.7463029,13.4971162 C67.3806566,12.6577196 67.1390121,11.8262718 66.6795697,11.0679533 C64.4745637,7.44805531 62.1010426,5.25576752 58.4255028,3.10640343 C57.6433378,2.64696096 56.7053756,2.47367643 55.7117717,2.23680124 C55.1712511,2.20023662 54.6434487,2.16844129 54.1029281,2.13823573 C53.7802056,2.00151582 53.4384058,1.60407424 53.1347604,1.40535345 C52.3716726,0.928423543 50.8677536,0.0953859805 49.6261461,0.0763087844 Z M54.8866829,5.34320467 C54.5917692,5.3402214 54.2975978,5.37332235 54.0107217,5.44177019 L54.0107217,5.49105294 L54.0600044,5.49105294 C54.2269299,5.83921177 54.532165,6.06336883 54.743604,6.36065513 L55.2205339,7.38605442 L55.2714064,7.3351819 C55.5686927,7.12533274 55.7117717,6.78353298 55.7117717,6.26844868 C55.5877699,6.14285714 55.5686927,5.98229074 55.4701272,5.83285271 C55.3270482,5.62777285 55.0599675,5.51489944 54.8866829,5.34161491 L54.8866829,5.34320467 Z M3.04440254,25.5046214 C2.56747264,25.5236986 2.04443951,25.6159051 1.48007246,25.7971384 C0.535751257,26.0832964 0.069949719,26.6476634 0.069949719,27.7970645 L0.069949719,39.8204673 L3.25584147,39.8204673 L3.25584147,28.0895815 L7.6706226,38.1194173 C8.21750222,39.3673839 8.96310263,39.8141083 10.4209184,39.8141083 C11.8882727,39.8141083 12.6020778,39.3673839 13.1489574,38.1194173 L17.5637385,28.3423543 L17.5637385,39.8204673 L20.7432712,39.8204673 L20.7432712,27.7970645 C20.7432712,26.6492532 20.282239,26.0832964 19.3331485,25.7987282 C17.0725007,25.0833333 15.5510944,25.6985729 14.8690846,27.2454156 L10.335071,37.4421769 L5.95049542,27.2454156 C5.45448832,26.0848861 4.46088435,25.4489796 3.04440254,25.5062112 L3.04440254,25.5046214 Z M41.8029059,25.5109805 C40.5469905,25.5109805 36.6409346,25.6604185 36.6409346,28.6905132 L36.6409346,30.6522848 C36.6409346,32.0433304 37.8650547,33.1800133 40.516785,33.4598122 C40.8140713,33.4788894 41.1129474,33.5027359 41.4102337,33.5027359 C41.4102337,33.5027359 44.5023292,33.440735 44.5897663,33.4598122 C46.3782535,33.4598122 46.1795327,34.8508577 46.1795327,35.0495785 L46.1795327,36.6393449 C46.1795327,36.8571429 46.1302499,38.2291112 44.5706891,38.2291112 L36.6409346,38.2291112 L36.6409346,39.8188776 L44.6024845,39.8188776 C45.6453712,39.8188776 46.6580524,39.6010796 47.4640639,39.2227152 C48.8058267,38.6074756 49.3590654,37.7760278 49.3590654,36.6822686 L49.3590654,34.4089027 C49.3590654,31.9717909 46.3289707,31.8716356 44.5897663,31.8716356 L41.4102337,31.8716356 C40.1622671,31.8716356 39.9699054,31.1133171 39.8204673,30.2818693 L39.8204673,28.6921029 C39.9699054,28.0593759 40.2497042,27.2009021 41.3545918,27.1023366 L49.3590654,27.1023366 L49.3590654,25.5125702 L41.8029059,25.5109805 Z M54.0965691,25.5109805 C51.7500739,25.833703 50.9233954,27.0021813 50.9233954,28.6905132 L50.9233954,36.6393449 C50.9233954,38.1861875 51.7866386,39.1177906 53.5624076,39.6010796 C54.1601597,39.7695948 54.6990905,39.8379547 55.2094055,39.8379547 L58.7482254,39.8204673 L60.8292295,39.8204673 L62.5986395,41.4102337 L66.1756137,41.4102337 L63.7162452,39.1925096 C64.8720053,38.7155797 65.2312925,37.9826974 65.2312925,36.6091393 L65.2312925,28.6921029 C65.2312925,27.0021813 64.132764,25.8352928 61.7846791,25.5125702 L54.0965691,25.5109805 Z M66.8464951,25.5125702 L66.8464951,36.5725747 C66.8464951,38.4914227 67.9338953,39.5724638 70.8081928,39.788672 C71.0752736,39.8013901 71.3487134,39.8204673 71.6157941,39.8204673 L79.5646259,39.8204673 L79.5646259,38.230701 L72.2183156,38.230701 C70.5792665,38.230701 70.0260278,37.5407424 70.0260278,36.5614463 L70.0260278,25.5125702 L66.8464951,25.5125702 Z M55.9915705,27.1023366 L60.0836291,27.1023366 C61.1646702,27.1023366 61.8911934,27.9719388 62.0517598,28.6921029 C62.0517598,28.6921029 62.0771961,36.094055 62.0771961,36.6409346 C62.0771961,37.1878143 61.7735507,37.4358178 61.7735507,37.4358178 L60.9103076,36.6409346 L57.3078971,36.6409346 L59.077307,38.230701 L55.9915705,38.230701 C54.8866829,38.230701 54.2650843,37.4103815 54.1029281,36.6409346 L54.1029281,28.8542591 C54.1029281,28.0085034 54.749963,27.1023366 55.9915705,27.1023366 Z M22.3330376,30.2818693 C22.3966282,30.3454599 22.3330376,37.0574534 22.3330376,37.1878143 C22.3584738,38.5788598 24.1215247,39.7950311 26.8845386,39.8204673 L31.8716356,39.8204673 L31.8716356,39.9253919 C31.8716356,40.224268 32.0894336,41.2178719 30.2818693,41.4102337 L22.3330376,41.4102337 L22.3330376,43 L30.623669,43 C32.0274327,42.9570763 35.0702455,42.639123 35.0511683,40.2051908 C35.0511683,40.1622671 35.0638864,30.2818693 35.0511683,30.2818693 L31.8716356,30.2818693 L31.8716356,38.230701 C31.8223529,38.230701 27.9337844,38.2434191 27.1516193,38.230701 C25.6174948,38.2052647 25.487134,37.3308932 25.5125702,36.9954525 L25.5125702,30.2818693 L22.3330376,30.2818693 Z" id="surface1"></path>
        </g>
    </g>
</svg>