<?xml version="1.0" encoding="UTF-8"?>
<svg width="43px" height="43px" viewBox="0 0 43 43" version="1.1" xmlns="http://www.w3.org/2000/svg" xmlns:xlink="http://www.w3.org/1999/xlink">
    <!-- Generator: Sketch 48.1 (47250) - http://www.bohemiancoding.com/sketch -->
    <title>new-openstack-logo-300604dac6c4c343</title>
    <desc>Created with Sketch.</desc>
    <defs></defs>
    <g id="Page-1" stroke="none" stroke-width="1" fill="none" fill-rule="evenodd">
        <g id="new-openstack-logo-300604dac6c4c343" fill="#848C97" fill-rule="nonzero">
            <path d="M5.11904762,0 C2.29333333,0 0,2.29333333 0,5.11904762 L0,14.3333333 L11.2619048,14.3333333 C11.2619048,12.6440476 12.6440476,11.2619048 14.3333333,11.2619048 L28.6666667,11.2619048 C30.3559524,11.2619048 31.7380952,12.6440476 31.7380952,14.3333333 L43,14.3333333 L43,5.11904762 C43,2.29333333 40.7066667,0 37.8809524,0 L5.11904762,0 Z M0,16.3809524 L0,26.6190476 L11.2619048,26.6190476 L11.2619048,16.3809524 L0,16.3809524 Z M31.7380952,16.3809524 L31.7380952,26.6190476 L43,26.6190476 L43,16.3809524 L31.7380952,16.3809524 Z M0,28.6666667 L0,37.8809524 C0,40.7066667 2.29333333,43 5.11904762,43 L37.8809524,43 C40.7066667,43 43,40.7066667 43,37.8809524 L43,28.6666667 L31.7380952,28.6666667 C31.7380952,30.3559524 30.3559524,31.7380952 28.6666667,31.7380952 L14.3333333,31.7380952 C12.6440476,31.7380952 11.2619048,30.3559524 11.2619048,28.6666667 L0,28.6666667 Z" id="Shape"></path>
        </g>
    </g>
</svg>