<?xml version="1.0" encoding="UTF-8"?>
<svg width="37px" height="43px" viewBox="0 0 37 43" version="1.1" xmlns="http://www.w3.org/2000/svg" xmlns:xlink="http://www.w3.org/1999/xlink">
    <!-- Generator: Sketch 48.1 (47250) - http://www.bohemiancoding.com/sketch -->
    <title>nodejs-social-media-3a743418dbe8cc5e</title>
    <desc>Created with Sketch.</desc>
    <defs></defs>
    <g id="Page-1" stroke="none" stroke-width="1" fill="none" fill-rule="evenodd">
        <g id="nodejs-social-media-3a743418dbe8cc5e" fill="#848C97" fill-rule="nonzero">
            <path d="M18.4206049,43 C17.8584159,42.9992425 17.3068568,42.8467372 16.8241339,42.5585781 L11.7385201,39.4449174 C10.9789174,39.0070469 11.3523839,38.8495402 11.6000179,38.7595089 C12.6140692,38.3966004 12.916221,38.2165379 13.9944844,37.5803683 C14.1102388,37.5163482 14.2581473,37.5396719 14.3740938,37.6112746 L18.1855446,39.8672388 C18.3272143,39.9488237 18.5269531,39.9488237 18.6588326,39.8672388 L33.5541094,31.0132701 C33.695683,30.9290937 33.7859063,30.7593013 33.7859063,30.5870134 L33.7859063,12.6570692 C33.7859063,12.4795022 33.695683,12.3123013 33.550846,12.2224621 L18.662096,3.13564063 C18.5202344,3.04983259 18.3337411,3.04983259 18.1919754,3.13564063 L3.31291964,12.2256295 C3.16472321,12.3123013 3.07142857,12.4845893 3.07142857,12.6570692 L3.07142857,30.5870134 C3.07142857,30.761029 3.16472321,30.9241987 3.30956027,31.008279 L7.14203125,33.3091629 C9.40816964,34.480529 10.75,33.292846 10.75,31.9067679 L10.75,14.2749442 C10.75,14.0203996 10.9464754,13.8212366 11.1911339,13.8212366 L13.3803906,13.8212366 C13.6217857,13.8212366 13.8216205,14.0201116 13.8216205,14.2749442 L13.8216205,31.9066719 C13.8216205,35.0321384 11.9640781,36.8255647 9.09939509,36.8255647 C8.22058259,36.8255647 7.52557589,36.8255647 5.5910558,35.8389643 L1.59973437,33.4604308 C0.611502232,32.8699487 0,31.7667299 0,30.5852857 L0,12.400029 C0,11.2179129 0.611502232,10.1171897 1.59954241,9.52853125 L16.8304688,0.42328125 C17.7928817,-0.14109375 19.0739554,-0.14109375 20.0297455,0.42328125 L35.2573125,9.52853125 C36.2457366,10.1187254 36.8571429,11.2202165 36.8571429,12.400029 L36.8571429,30.5852857 C36.8571429,31.7667299 36.2457366,32.8648616 35.2573125,33.4602388 L20.0297455,42.5568504 C19.5452345,42.8461654 18.9913529,42.9987167 18.4270357,42.9982723 L18.4206049,43 Z" id="Shape"></path>
            <path d="M23.1262254,30.7140937 C16.9248192,30.7140937 15.0631496,27.6800982 15.0631496,25.0251362 C15.0631496,24.7727991 15.259721,24.5712366 15.5010201,24.5712366 L17.4706696,24.5712366 C17.6897009,24.5712366 17.8763862,24.7344062 17.9085402,24.9567009 C18.2045491,27.0301071 19.5160491,27.9465446 23.1226741,27.9465446 C26.3283817,27.9465446 27.6425692,26.9535134 27.6425692,25.1933929 C27.6425692,24.17675 27.310183,23.4250179 22.3244866,22.918904 C18.1562701,22.4926473 15.5780938,21.5393527 15.5780938,18.0914821 C15.5780938,14.9111138 18.1692277,13.0533795 22.5112679,13.0533795 C26.9387321,13.0533795 29.8502545,14.3971295 30.1104621,17.9320558 C30.1202522,18.0603839 30.0751406,18.1843929 29.9913482,18.2818147 C29.9077478,18.3744375 29.7918973,18.4283795 29.6695201,18.4283795 L27.6931518,18.4283795 C27.4871741,18.4283795 27.3069196,18.2784554 27.2651674,18.0719978 C26.84275,16.4448125 25.6363504,15.8258237 22.5080045,15.8258237 C19.006,15.8258237 18.5971161,17.0498839 18.5971161,17.995692 C18.5971161,19.1439263 19.0800022,19.4777522 23.8083705,20.123808 C28.4885558,20.7633371 30.712654,21.6707522 30.712654,25.0718795 C30.712654,28.5062165 27.9476004,30.7139978 23.1228661,30.7139978 L23.1262254,30.7140937 Z" id="Shape"></path>
        </g>
    </g>
</svg>