<?xml version="1.0" encoding="UTF-8"?>
<svg width="41px" height="43px" viewBox="0 0 41 43" version="1.1" xmlns="http://www.w3.org/2000/svg" xmlns:xlink="http://www.w3.org/1999/xlink">
    <!-- Generator: Sketch 48.1 (47250) - http://www.bohemiancoding.com/sketch -->
    <title>postgresql-logo-3cb56f4824d3f692</title>
    <desc>Created with Sketch.</desc>
    <defs></defs>
    <g id="Page-1" stroke="none" stroke-width="1" fill="none" fill-rule="evenodd">
        <g id="postgresql-logo-3cb56f4824d3f692" transform="translate(0.408632, 0.000000)" fill="#848C97" fill-rule="nonzero">
            <path d="M29.8803763,0.0115591398 C28.4354839,0.0115591398 27.1813172,0.296684588 26.0273297,0.586626344 C28.0501792,1.45259857 29.3043459,2.51314964 29.9767025,2.99478047 C31.5198477,4.34238351 32.3848566,5.69287634 33.9280018,7.9093414 C34.2140905,8.39097222 34.6957213,9.06429211 34.9856631,10.1219534 C35.2746416,11.0852151 35.2746416,11.8558244 35.2746416,12.627397 C35.2746416,13.6889113 35.1783154,14.5539203 35.0800627,15.4198925 C34.9856631,16.0970654 34.9856631,16.3870072 34.8912634,16.5786962 C34.8912634,16.6759857 34.8912634,16.7703853 34.793974,16.9620744 C34.793974,17.4437052 34.793974,17.6392473 34.8912634,18.0235887 C34.8912634,18.4069668 34.9856631,18.794198 34.9856631,19.4684812 C35.0839158,20.7207213 35.0839158,21.5866935 34.8912634,22.6443548 L34.8912634,23.031586 C34.6957213,23.896595 34.5040323,24.765457 34.0224014,25.5341398 C34.1206541,25.7296819 34.2150538,25.8231183 34.3113799,26.0157706 C34.7930108,25.3414875 35.1783154,24.6681676 35.5616935,23.900448 C36.7195341,21.7793459 37.3938172,19.950112 37.875448,18.602509 C38.740457,16.0970654 39.2220878,14.2639785 39.5129928,12.9173387 C40.1853495,10.0275538 40.2836022,8.68091398 39.9946237,7.13776882 C39.9946237,6.65613799 39.8019713,5.78727599 39.3203405,4.92226703 C38.2588262,2.99574373 36.6232079,2.12880824 35.4672939,1.55085125 C34.6966846,1.16554659 32.6719086,0.105958781 29.8803763,0.0115591398 Z M9.01131272,0.436357527 C7.9016353,0.414202509 6.54728943,0.5375 5.02629928,1.25994624 C4.54466846,1.45645161 3.09977599,2.12977151 1.94482527,3.66810036 C1.17421595,4.63136201 0.598185484,6.07625448 0.308243728,7.71379928 C0.019265233,9.15869176 -0.0789874552,10.8964158 0.500896057,14.1705421 C0.884274194,16.4804435 1.27150538,18.0235887 2.0421147,21.1994624 C2.14036738,21.5866935 2.71639785,23.3215278 3.96863799,27.1745744 L4.06303763,27.3662634 C4.25954301,28.0405466 4.83461022,29.4854391 6.08781362,30.9303315 C6.95282258,31.8935932 7.72535842,32.4715502 8.4015681,32.4715502 L8.59036738,32.4715502 C9.84260753,32.4715502 10.7124328,31.5082885 11.4801523,30.7376792 C11.4801523,30.6394265 13.312276,28.4277778 13.9855959,27.6552419 C13.8883065,27.5589158 13.6995072,27.5589158 13.6022177,27.4606631 C12.4463038,26.7863799 11.5774418,25.7296819 10.9041219,24.5708781 C9.74820789,22.4517025 9.84260753,20.3334901 10.0352599,19.2729391 L10.1325493,17.6392473 C9.74917115,15.0355511 9.84646057,12.5339606 10.3280914,10.0275538 C10.7124328,7.90837814 11.1940636,5.79112903 12.9250448,3.57370072 C13.5039651,2.8030914 14.1772849,2.12880824 14.8515681,1.64717742 C13.3272261,0.980069874 11.6964068,0.589325572 10.0352599,0.493189964 C9.72219982,0.466218638 9.38024194,0.44406362 9.01131272,0.436357527 Z M21.1127688,1.25994624 C20.631138,1.25994624 20.1495072,1.25994624 19.6678763,1.35819892 C17.741353,1.74157706 15.9121192,2.8030914 14.4672267,4.63136201 C13.0223342,6.46444892 12.6389561,8.19543011 12.2546147,10.2192428 C12.0590726,10.9908154 12.0590726,11.6641353 11.9617832,12.4357079 C12.5407034,11.9540771 13.312276,11.3741935 14.4672267,11.0852151 C15.1415099,10.8925627 16.8753808,10.3174955 18.3202733,11.1825045 C18.8019041,11.4724462 19.4761873,12.0523297 20.1495072,13.6889113 C21.5943996,17.733647 20.1533602,21.8766353 19.9607079,22.2600134 C19.8634185,22.6443548 19.6717294,22.9342966 19.5734767,23.1259857 C19.3808244,23.6076165 19.1900986,23.9948477 18.9974462,24.7664203 C18.9001568,25.4397401 18.8019041,26.0186604 18.8019041,26.6929435 C19.0918459,26.6929435 19.3817876,26.7863799 19.6678763,26.9790323 C20.1495072,27.4606631 20.2467966,28.137836 20.3450493,28.4239247 C20.5367384,29.9661066 20.5367384,31.8926299 20.5367384,33.8191532 C20.5367384,35.3622984 20.5367384,36.8071909 20.631138,37.7704525 C20.8266801,39.9859543 21.5,41.5252464 22.4632616,42.296819 C23.1375448,42.8767025 24.0025538,42.8728495 24.4841846,42.9711022 L24.6797267,42.9711022 C26.1246192,42.9711022 28.4345206,42.0078405 29.3004928,40.6592742 C29.7821237,39.8886649 29.9776658,39.2143817 30.1693548,38.2511201 C30.2676075,37.6731631 30.2637545,37.3861111 30.3620072,36.8062276 C30.3620072,36.5172491 30.4583333,36.0356183 30.4583333,35.4595878 C30.4583333,34.977957 30.552733,34.3990367 30.6509857,33.7218638 C30.7492384,32.084319 31.0343638,30.1616487 31.1326165,29.1010977 C31.2308692,27.8478943 31.8068996,26.7863799 32.2885305,26.11306 C31.6142473,26.0157706 30.9399642,25.4397401 30.556586,24.4764785 C29.9776658,23.4149642 29.8794131,23.1259857 29.7821237,22.6443548 C29.687724,22.2600134 29.4960349,21.7783826 28.818862,20.3334901 C27.3739695,17.0603271 27.1851703,16.0970654 27.1851703,15.3254928 C27.0878808,14.2639785 26.9896281,12.8229391 28.1484319,11.8596774 C29.8794131,10.3174955 32.0958781,10.4147849 33.2508289,10.7991263 L33.2508289,10.6035842 C33.0591398,9.8358647 32.6757616,9.25598118 32.3858199,8.87260305 C30.9399642,6.65613799 30.1693548,5.50022401 28.818862,4.34431004 C27.5900928,3.30642517 26.1892794,2.49143019 24.6797267,1.93615591 C23.7164651,1.64717742 22.5576613,1.25898297 21.1127688,1.25898297 L21.1127688,1.25994624 Z M31.7606631,12.5561156 C31.0613351,12.5079525 30.1693548,12.627397 29.3977823,13.3045699 C29.0144041,13.6889113 29.0144041,14.4604839 29.1116935,15.1338038 C29.1116935,15.6154346 29.2060932,16.2887545 30.6509857,19.5657706 C31.3252688,21.1050627 31.5159946,21.5866935 31.6142473,21.9739247 C31.7125,22.3582661 31.8068996,22.5499552 32.3848566,23.6076165 C32.4831093,23.8031586 32.577509,23.9948477 32.7701613,24.1865367 C32.9608871,23.8975582 33.0591398,23.4159274 33.1535394,22.6443548 L33.2508289,22.3582661 C33.4434812,21.4922939 33.3490815,20.815121 33.3490815,19.6601703 C33.3490815,19.0802867 33.2508289,18.6969086 33.2508289,18.4079301 C33.1535394,17.9262993 33.1535394,17.5409946 33.1535394,16.9630376 C32.9608871,16.6721326 32.9608871,16.577733 33.0591398,16.3831541 C33.0591398,16.1905018 33.1535394,15.9053763 33.2517921,15.3254928 C33.3481183,14.5548835 33.446371,13.8806004 33.446371,13.109991 C33.2508289,13.0117384 33.1573925,12.9173387 32.9647401,12.8229391 C32.9647401,12.8229391 32.4571013,12.6052419 31.7606631,12.5561156 Z M16.6991039,12.9366039 C16.0855063,12.8643593 15.381362,13.0637545 14.9488575,13.2063172 C13.8883065,13.4972222 13.2178763,14.1695789 12.7362455,14.5548835 C12.447267,14.843862 12.1573253,15.1328405 11.8673835,15.5181452 C11.8673835,16.1905018 11.9617832,16.868638 12.0600358,17.5409946 L12.0600358,17.6392473 L11.8673835,19.5657706 C11.6747312,20.4317428 11.578405,22.0683244 12.5416667,23.7049059 C13.0232975,24.6681676 13.6995072,25.4397401 14.5645161,25.921371 C15.1443996,26.3047491 15.9130824,26.5956541 16.7780914,26.790233 C16.7780914,26.11306 16.8753808,25.3414875 16.9736335,24.6681676 C17.1653226,23.7049059 17.3570116,23.2232751 17.6469534,22.6443548 C17.737023,22.3705695 17.8675445,22.1117991 18.0341846,21.8766353 C18.1285842,21.5866935 19.475224,17.925336 18.2229839,14.5539203 C17.9368952,13.7833109 17.6469534,13.3016801 17.2597222,13.1090278 C17.0870069,13.0127193 16.8960338,12.9536555 16.6991039,12.9356407 L16.6991039,12.9366039 Z M30.8320789,13.4856631 C31.0834901,13.4702509 31.3243056,13.4933692 31.4225582,13.5916219 C31.7115367,13.7823477 31.3243056,14.2639785 31.2270161,14.3622312 C31.1326165,14.4604839 30.9409274,14.6512097 30.6509857,14.7494624 C30.2676075,14.843862 29.9767025,14.5539203 29.8803763,14.5539203 C29.7821237,14.4566308 29.4950717,14.1705421 29.5933244,13.8806004 C29.687724,13.687948 29.7859767,13.687948 30.1693548,13.5916219 C30.3850766,13.5292357 30.6076592,13.4936484 30.8320789,13.4856631 Z M16.3523297,14.2832437 C16.6759857,14.2610887 16.9466622,14.3843862 17.1653226,14.4566308 C17.4543011,14.5539203 17.741353,14.6521729 17.741353,14.843862 C17.8386425,15.1328405 17.5525538,15.3254928 17.4552643,15.4198925 C17.1653226,15.708871 16.6836918,15.712724 16.6836918,15.712724 C16.2020609,15.712724 15.9130824,15.4237455 15.7204301,15.1338038 C15.6221774,15.0355511 15.5277778,14.843862 15.6260305,14.6521729 C15.7204301,14.4595206 15.9121192,14.3622312 16.0103719,14.3622312 C16.1307796,14.3140681 16.2434812,14.2909498 16.3523297,14.2832437 Z M34.0224014,26.8846326 C33.5407706,27.5589158 32.8664875,28.4277778 32.7701613,29.5817652 C32.7701613,29.7744176 32.7701613,29.8726703 32.6719086,30.0633961 C33.4425179,30.2560484 34.1206541,30.2560484 34.793974,30.1616487 C36.3361559,29.9670699 37.3938172,29.1945341 37.5855063,29.0038082 C38.2597894,28.5221774 39.1286514,27.5589158 38.9331093,27.1755376 C38.8387097,26.9828853 38.5487679,27.0772849 37.006586,27.1755376 C36.6222446,27.1755376 35.4672939,27.4645161 34.6957213,27.2728271 L34.5040323,27.2728271 C34.3113799,27.1755376 34.1206541,27.0772849 34.0224014,26.8855959 L34.0224014,26.8846326 Z M17.2597222,28.8111559 C17.0670699,29.1001344 16.7819444,29.2927867 16.5892921,29.4854391 C15.8186828,29.9670699 14.8515681,30.3543011 13.8883065,30.5450269 C13.0223342,30.8359319 12.5407034,30.8359319 12.5407034,31.1249104 C12.443414,31.5092518 13.4066756,31.9908826 13.8883065,32.1825717 C15.528741,32.8568548 17.1653226,32.4715502 17.4552643,32.375224 C17.6469534,32.2769713 18.1285842,32.084319 18.6102151,31.7953405 C18.6102151,30.7376792 18.5158154,29.7744176 18.4175627,29.002845 L18.4175627,28.9055556 L18.3212366,28.9055556 C18.0303315,28.9055556 17.6469534,28.9094086 17.2597222,28.8111559 Z" id="surface1"></path>
        </g>
    </g>
</svg>