<?xml version="1.0" encoding="UTF-8"?>
<svg width="49px" height="43px" viewBox="0 0 49 43" version="1.1" xmlns="http://www.w3.org/2000/svg" xmlns:xlink="http://www.w3.org/1999/xlink">
    <!-- Generator: Sketch 48.1 (47250) - http://www.bohemiancoding.com/sketch -->
    <title>react</title>
    <desc>Created with Sketch.</desc>
    <defs></defs>
    <g id="Page-1" stroke="none" stroke-width="1" fill="none" fill-rule="evenodd">
        <g id="react" transform="translate(0.182825, 0.000000)" fill-rule="nonzero">
            <path d="M39.8494601,13.9648297 C39.3364577,13.7888599 38.8191029,13.6258441 38.2978882,13.4759373 C38.3843243,13.1247125 38.4642558,12.7719188 38.5376417,12.4177372 C39.7120924,6.71655297 38.9441987,2.12369537 36.3218417,0.611797982 C33.8076297,-0.838241305 29.6955589,0.673656087 25.5425338,4.28766251 C25.1333068,4.64459296 24.7331634,5.01180599 24.3424865,5.38895007 C24.0808609,5.1381716 23.8146121,4.89226123 23.5438771,4.6513455 C19.1914129,0.786707105 14.8287101,-0.841654166 12.209126,0.674722606 C9.69726039,2.12881467 8.9532567,6.44672365 10.0106037,11.8497091 C10.1158023,12.3847623 10.2345798,12.917056 10.366821,13.4460748 C9.74951982,13.6214105 9.15333567,13.8082647 8.58296129,14.0070638 C3.48030759,15.7860176 0.221452014,18.574325 0.221452014,21.466298 C0.221452014,24.4534045 3.71963447,27.4494698 9.03473876,29.265965 C9.46571523,29.4125752 9.90027892,29.5484208 10.338025,29.6733753 C10.1958158,30.2433103 10.0695617,30.8171083 9.95941077,31.3940971 C8.95133697,36.7032289 9.73864132,40.9187521 12.2438946,42.3638854 C14.831483,43.8559455 19.1743486,42.3222911 23.4033099,38.6257361 C23.7375569,38.3335099 24.0730838,38.0235795 24.4090373,37.6987178 C24.8321941,38.106994 25.2666494,38.5033953 25.711897,38.8874599 C29.8081833,42.4123053 33.8537034,43.8356817 36.3568235,42.3867089 C38.9420657,40.8901694 39.7820561,36.3615162 38.6912204,30.8516656 C38.6080319,30.4308171 38.5109787,30.00101 38.4021938,29.5633106 C38.7072182,29.4732963 39.0064834,29.3802959 39.2984964,29.283456 C44.8239182,27.4528827 48.4187273,24.4932923 48.4187273,21.466298 C48.4187273,18.5638731 45.0549262,15.756795 39.8494601,13.9648297 Z" id="Shape" fill="#848C97"></path>
            <path d="M38.650906,27.3291665 C38.3874758,27.4164077 38.1170066,27.5006627 37.841418,27.5823581 C37.2313692,25.6513187 36.4080165,23.597843 35.4007959,21.4765366 C36.3621561,19.4053566 37.1535133,17.3783305 37.7464978,15.4596628 C38.2394429,15.6025763 38.7180967,15.7529555 39.1792595,15.9118668 C43.6394422,17.4470143 46.3599189,19.7172068 46.3599189,21.466298 C46.3599189,23.3295068 43.421659,25.7483719 38.6511193,27.3291665 L38.650906,27.3291665 Z M36.6714467,31.2516102 C37.1537266,33.6879663 37.2226237,35.8907547 36.9030946,37.6127564 C36.6159877,39.1600622 36.0387876,40.1915994 35.325073,40.6047689 C33.8061366,41.4840072 30.5577329,40.3411254 27.0548578,37.326716 C26.6532067,36.9811638 26.2485694,36.6121482 25.8428655,36.2218022 C27.2009709,34.7363545 28.558223,33.0094469 29.8828397,31.0918456 C32.2129705,30.8851543 34.4142658,30.5470677 36.4105761,30.0856916 C36.5086959,30.4824367 36.5961504,30.8712895 36.6714467,31.2516102 Z M16.6528843,40.4528966 C15.1689297,40.976984 13.9870133,40.9919153 13.2726588,40.5800256 C11.7522293,39.703347 11.1204234,36.3182155 11.9823841,31.778044 C12.0848851,31.2414911 12.2022473,30.7078843 12.3343354,30.1778388 C14.3084621,30.6144717 16.4937596,30.9286682 18.8294363,31.118082 C20.1627984,32.9945156 21.5592985,34.7192902 22.966677,36.2296945 C22.6675716,36.5190333 22.3613878,36.8009641 22.0484041,37.0752308 C20.1783696,38.7099912 18.3044957,39.8695107 16.6530976,40.4528966 L16.6528843,40.4528966 Z M9.70067325,27.3176481 C7.35049189,26.5143459 5.40964054,25.4704371 4.07926469,24.3313947 C2.88391015,23.3075365 2.28026037,22.2911438 2.28026037,21.466298 C2.28026037,19.7114476 4.89685818,17.4728241 9.26084079,15.951328 C9.80858347,15.7611927 10.361775,15.5871334 10.9197045,15.4293736 C11.5229277,17.3911287 12.3140715,19.4422582 13.2688193,21.5164244 C12.3016999,23.6215197 11.499251,25.7052846 10.8904819,27.6900765 C10.4908874,27.5757014 10.0941647,27.451521 9.70067325,27.3176481 Z M12.0312307,11.4542439 C11.1253294,6.82491131 11.7268461,3.33291466 13.2406632,2.45666262 C14.85324,1.52324515 18.4186132,2.85426092 22.1765997,6.19097239 C22.4167798,6.4042762 22.6580264,6.62760528 22.8996996,6.85861331 C21.4995734,8.36219185 20.1158716,10.0739549 18.7940279,11.93951 C16.5272483,12.1496143 14.3573087,12.4870609 12.3624915,12.9390517 C12.2396121,12.4469064 12.1291568,11.9517421 12.0312307,11.4540305 L12.0312307,11.4542439 Z M32.8213129,16.5878266 C32.3501413,15.773951 31.8614911,14.9703202 31.3557025,14.1774936 C32.8936229,14.3716 34.3669123,14.6296976 35.7504008,14.9456006 C35.3350983,16.2768297 34.81741,17.6688503 34.2077877,19.0958528 C33.7623703,18.2506983 33.3001199,17.4145228 32.8213129,16.5878266 Z M24.3431265,8.32998298 C25.292755,9.35874724 26.2438767,10.5076016 27.1794272,11.7539357 C25.2816655,11.6642585 23.3807375,11.6638315 21.4829357,11.7526559 C22.4193394,10.5178401 23.3785666,9.37069226 24.3431265,8.32998298 Z M15.8105475,16.6019047 C15.3377353,17.4220262 14.8841279,18.2530708 14.4500958,19.0943597 C13.8504988,17.6722632 13.3375032,16.2740567 12.9185745,14.9238436 C14.2937441,14.6160462 15.7602078,14.364561 17.288103,14.1736541 C16.776646,14.9713942 16.2839917,15.7810342 15.8105475,16.6019047 Z M17.3320436,28.9059082 C15.7535954,28.7297193 14.2649481,28.4910323 12.8902051,28.1917671 C13.3157462,26.8176639 13.8400469,25.3893816 14.4524422,23.9367827 C14.888304,24.7786951 15.3439047,25.610241 15.8188664,26.4307308 C16.3035164,27.2676982 16.8080521,28.0929919 17.3320436,28.9059082 Z M24.4000786,34.7480862 C23.4242137,33.6950053 22.4509084,32.5303665 21.5002133,31.2776333 C22.4229656,31.3138949 23.3638487,31.332239 24.3200896,31.332239 C25.302567,31.332239 26.2737392,31.3102687 27.2295536,31.267608 C26.2910168,32.5431648 25.343308,33.70951 24.4000786,34.7480862 Z M34.2274116,23.8627663 C34.8715891,25.3311497 35.4146606,26.7517531 35.8459609,28.1026061 C34.4483944,28.4214953 32.9396965,28.6783131 31.3499433,28.8690067 C31.8593877,28.0613774 32.3527148,27.2436933 32.8296318,26.4164395 C33.3144469,25.5756909 33.7804889,24.7242557 34.2274116,23.8627663 Z M31.0459853,25.3878885 C30.315889,26.6561836 29.5447438,27.9004023 28.733772,29.1185721 C27.3037833,29.2207446 25.8260145,29.2734307 24.3200896,29.2734307 C22.8203506,29.2734307 21.3613525,29.2267171 19.9563203,29.1356364 C19.1243153,27.9203029 18.3385822,26.6739308 17.6008064,25.3991936 C16.8664791,24.1312197 16.1805686,22.8358165 15.5445577,21.5157845 C16.1789509,20.195357 16.8627887,18.8992599 17.5946206,17.6302423 L17.5946206,17.6306689 C18.3262229,16.3613811 19.1057702,15.1203382 19.9315771,13.9102239 C21.3649787,13.8018656 22.8346419,13.7451268 24.320303,13.7451268 C25.8125764,13.7451268 27.2841594,13.8022922 28.7171343,13.9115037 C29.5345883,15.1197559 30.3091498,16.3564788 31.0393729,17.6193638 C31.7737214,18.8855581 32.4666853,20.1753062 33.1171653,21.4865619 C32.4733765,22.8111771 31.7826165,24.1124441 31.0461986,25.3878885 L31.0459853,25.3878885 Z M35.2935041,2.39544443 C36.9073607,3.32630224 37.5351138,7.07980936 36.5210675,12.0022213 C36.4546021,12.3228867 36.3823515,12.6423257 36.3043508,12.960382 C34.3048409,12.4990059 32.1334081,12.1555868 29.8600162,11.942283 C28.5356128,10.056464 27.1634294,8.34171468 25.7859134,6.85754679 C26.1468796,6.50955185 26.5164358,6.17057861 26.89424,5.84094084 C30.4525741,2.74419615 33.7781938,1.52153872 35.2935041,2.39544443 Z" id="Shape" fill="#FFFFFF"></path>
            <path d="M24.3200896,17.1624671 C26.6971473,17.1624671 28.6239206,19.0894537 28.6239206,21.466298 C28.6239206,23.8433556 26.6971473,25.7703422 24.3200896,25.7703422 C21.9432453,25.7703422 20.0162587,23.8433556 20.0162587,21.466298 C20.0162587,19.0894537 21.9432453,17.1624671 24.3200896,17.1624671" id="Shape" fill="#848C97"></path>
        </g>
    </g>
</svg>