<?xml version="1.0" encoding="UTF-8"?>
<svg width="139px" height="49px" viewBox="0 0 139 49" version="1.1" xmlns="http://www.w3.org/2000/svg" xmlns:xlink="http://www.w3.org/1999/xlink">
    <!-- Generator: Sketch 48.1 (47250) - http://www.bohemiancoding.com/sketch -->
    <title>realmio-black</title>
    <desc>Created with Sketch.</desc>
    <defs></defs>
    <g id="Page-1" stroke="none" stroke-width="1" fill="none" fill-rule="evenodd">
        <g id="realmio-black" transform="translate(3.000000, 3.000000)">
            <g id="Group" stroke="#848C97" stroke-width="5">
                <path d="M21.5405852,0 C15.9093912,0 10.3086361,2.31166431 6.32790625,6.28901211 C2.34717634,10.2663599 0.0219836401,15.8468224 0.0219836401,21.4627969 C0.0219836401,27.0787714 2.33872109,32.6676892 6.32790625,36.6382728 C10.3154003,40.6088564 15.9110823,42.9272849 21.5422762,42.9272849 C27.1734702,42.9272849 32.7742253,40.6156206 36.7549552,36.6365817 C40.7673731,32.6025877 43.0323549,27.1524183 43.0608778,21.4627969 C43.0608778,15.8485134 40.7441403,10.2595957 36.7549552,6.28901211 C32.7742253,2.31166431 27.1717791,0 21.5422762,0 L21.5405852,0 Z" id="Shape"></path>
                <path d="M30.7584946,2.09690105 C28.9504708,1.94340775 27.1295391,2.07869327 25.3640475,2.49767972 C21.4408133,3.4277568 17.9115935,5.71067327 13.9460831,6.43106025 C11.5147958,6.86853006 9.01363316,6.70894312 6.65766085,5.96602171 M38.3699072,8.0916706 C35.2381383,10.0461124 31.643063,11.1328056 27.9530439,11.2404043 C23.0405459,11.3604688 18.2210555,9.73029731 13.3085575,9.67956583 C9.36164858,9.6372896 5.43165015,10.6739028 1.98021866,12.57126 M4.28850087,18.8095407 C2.95090667,18.407068 1.67132763,17.8323659 0.481949033,17.0998899 M42.7666352,18.0079833 C41.2300371,16.7928987 39.5236802,15.8095357 37.7019427,15.0892323 C33.9363873,13.6190869 29.8163051,13.3127611 25.8747444,14.2098867 C23.2130329,14.8237376 20.71028,15.9685779 18.1923077,17.033939 C17.1895155,17.4583923 16.176577,17.8726994 15.1484191,18.236275" id="Shape"></path>
                <path d="M27.6757118,23.0608384 C25.3589744,22.3117036 23.1301715,21.2750905 20.8895312,20.3111924 C18.0908447,19.1105474 15.2008416,17.9944549 12.1738635,17.6934482 C9.09290341,17.3954833 5.98917588,17.9469842 3.19946516,19.2881076 C2.06726009,19.8352596 1.00120116,20.509844 0.0219836401,21.2987651" id="Shape"></path>
                <path d="M43.0541136,21.8652666 C39.4386503,20.5834513 35.4224084,20.4109643 31.73423,21.4627969 C27.0060563,22.80549 23.0084159,25.9525326 18.4730219,27.8448167" id="Shape"></path>
                <path d="M42.2559383,27.1869986 C40.7852763,28.195013 39.1925246,29.0121292 37.5159273,29.6187274 C33.7890868,30.9523199 29.7627464,31.2130477 25.895037,30.3712443 C21.1330423,29.3261759 16.8073384,26.6424807 11.9793928,25.9846626 C8.25062923,25.4773478 4.36967123,26.2789051 1.1059462,28.1390593 M40.2063867,32.1096429 C35.4646846,31.6023281 30.601227,32.1671386 26.1182555,33.7753264 C23.7727702,34.620851 21.5270568,35.7369435 19.1392953,36.4370379 C14.6787748,37.733467 9.91606007,37.5302927 5.58215353,35.8586991" id="Shape"></path>
            </g>
            <path d="M101.440971,6.73037596 L106.816816,6.73037596 L106.816816,31.9506843 L101.43928,31.9506843 L101.43928,6.73037596 L101.440971,6.73037596 Z M53.1040192,31.9371559 L58.4071496,31.9371559 L58.4071496,21.535512 C58.4071496,19.817406 58.831603,17.686684 60.58353,17.686684 C61.3867784,17.686684 62.0817996,17.8997562 62.7277804,18.442583 C62.748073,18.4645666 64.6606497,14.0103429 64.638666,14.0306355 C63.4515495,12.9415998 62.2103193,12.6828693 61.307299,12.6828693 C59.3422998,12.6828693 57.7053642,13.875059 57.045855,15.6591159 L56.0058597,13.2121677 L53.1040192,13.2121677 L53.1040192,31.9371559 Z M109.828575,31.9371559 L115.130014,31.9371559 L115.130014,21.535512 C115.130014,19.817406 116.144644,17.7780006 117.898262,17.7780006 C119.653571,17.7780006 119.802383,20.2131115 119.802383,21.3731713 C119.812529,21.4069923 119.809147,31.9354648 119.809147,31.9354648 L125.113969,31.9354648 L125.113969,21.6133003 C125.113969,19.2627419 126.422841,17.7999843 127.843322,17.7999843 C129.574957,17.7999843 129.83876,19.7227073 129.83876,21.535512 L129.848907,31.9354648 L135.133436,31.9354648 L135.133436,19.8765927 C135.133436,17.4668476 134.306513,12.638902 129.086244,12.638902 C126.605474,12.638902 125.166391,13.462443 123.999567,15.5407425 C122.910532,13.5841985 120.921858,12.6321378 118.956859,12.6321378 C116.769179,12.6341117 114.766905,13.8612064 113.772102,15.8096193 L112.728724,13.2138587 L109.830266,13.2138587 L109.830266,31.9371559 L109.828575,31.9371559 Z M70.1142835,20.2249489 L76.3542552,20.2249489 C76.2071339,17.7103587 74.7190105,16.8208668 73.2714724,16.8208668 C71.8256253,16.8208668 70.2901526,17.996146 70.1142835,20.2249489 Z M75.0115621,27.7822479 C77.3282995,27.7822479 79.1174296,26.6932122 79.1174296,26.6932122 L80.6156992,30.8650307 C79.8614913,31.2776467 77.3688847,32.3227151 74.4027843,32.3227151 C67.5810917,32.3227151 64.8399009,27.7940853 64.8399009,22.3742725 C64.8399009,17.2571575 67.9108463,12.6016989 73.3780085,12.6016989 C78.7487809,12.6016989 82.4082114,17.0728331 81.4510776,24.247955 L70.0398773,24.247955 C70.2884615,26.8014394 72.5003539,27.7822479 75.009871,27.7822479 L75.0115621,27.7822479 Z M87.7908211,26.309344 C87.7908211,27.579322 89.8403728,28.7951864 91.5550967,27.8752556 C93.2258534,26.9789995 93.0871874,25.5754287 93.0871874,23.59521 C89.9215432,23.59521 87.7908211,24.7417414 87.7908211,26.309344 Z M95.4309816,31.9439201 L94.3081249,29.7573934 C93.7720623,30.5488045 92.0235174,32.4850558 88.8037596,32.4850558 C85.2407189,32.4850558 82.5434954,29.9518641 82.5434954,26.9908369 C82.5434954,23.9824603 84.6302501,20.0118767 93.0990247,20.0118767 C93.0990247,18.0164386 91.3741545,17.2723769 89.5512034,17.2723769 C88.1577788,17.2723769 86.172487,17.8625531 84.4797467,19.4656678 L82.8681768,14.9167453 C83.9808872,14.2234151 86.549591,12.4478134 90.3730533,12.4478134 C96.0718893,12.4478134 98.398773,15.8975539 98.398773,21.4577238 L98.398773,31.9456111 L95.4309816,31.9456111 L95.4309816,31.9439201 Z" id="Shape" fill="#848C97" fill-rule="nonzero"></path>
        </g>
    </g>
</svg>