<?xml version="1.0" encoding="UTF-8"?>
<svg width="61px" height="43px" viewBox="0 0 61 43" version="1.1" xmlns="http://www.w3.org/2000/svg" xmlns:xlink="http://www.w3.org/1999/xlink">
    <!-- Generator: Sketch 48.1 (47250) - http://www.bohemiancoding.com/sketch -->
    <title>salesforce-logo-348c93781b863e57</title>
    <desc>Created with Sketch.</desc>
    <defs></defs>
    <g id="Page-1" stroke="none" stroke-width="1" fill="none" fill-rule="evenodd">
        <g id="salesforce-logo-348c93781b863e57" fill="#848C97" fill-rule="nonzero">
            <path d="M16.4411765,1.12328512e-15 C9.46505882,1.12328512e-15 3.79411765,5.67094118 3.79411765,12.6470588 C3.79411765,13.9016471 3.98129412,15.1423235 4.35185294,16.3475882 C1.60105395,18.5005911 -0.00433150704,21.8009389 -7.02056482e-16,25.2941176 C-7.02056482e-16,31.9540588 5.79994118,37.3290588 12.5484118,36.6170294 C14.4404118,40.4705882 18.4267647,43 22.7647059,43 C26.8244118,43 30.5552941,40.8209118 32.5864118,37.3632059 C33.6985408,37.7479023 34.8673348,37.9432713 36.0441176,37.9411765 C39.7948,37.95411 43.2765204,35.9957023 45.2132353,32.7837059 C45.7570588,32.8532647 46.2755882,32.8823529 46.7941176,32.8823529 C54.4658235,32.8823529 60.7058824,26.6422941 60.7058824,18.9705882 C60.7058824,11.2988824 54.4658235,5.05882353 46.7941176,5.05882353 C45.2473824,5.05882353 43.7360588,5.31176471 42.2879706,5.81005882 C40.2712116,2.96471091 37.0022954,1.27111352 33.5147059,1.26470588 C30.6945745,1.2523655 27.9855418,2.36319179 25.9859118,4.35185294 C23.5866665,1.58479406 20.1035502,-0.00330757888 16.4411765,1.12328512e-15 Z M19.1135,14.9235294 L20.0127059,14.9235294 C20.2062059,14.9235294 20.3592353,15.0828824 20.3592353,15.2801765 L20.3592353,22.661 C20.3592353,22.8633529 20.2062059,23.0163824 20.0127059,23.0163824 L19.1147647,23.0163824 C19.0213048,23.0164129 18.931795,22.9786909 18.8665475,22.9117765 C18.8013001,22.8448621 18.7658476,22.7544295 18.7682353,22.661 L18.7682353,15.2801765 C18.7682353,15.0828824 18.92,14.9247941 19.1135,14.9247941 L19.1135,14.9235294 Z M34.8780588,15.0677059 C35.0614412,15.0677059 35.2195294,15.0778235 35.3573824,15.1018529 C35.4901765,15.1271471 35.5951471,15.1524412 35.7077059,15.1865882 L35.7178235,15.1916471 C35.8367059,15.2409706 35.8910882,15.3497353 35.8468235,15.4673529 L35.5900882,16.1793824 C35.5546765,16.2628529 35.4863824,16.3665588 35.2878235,16.3033235 C35.2587353,16.2982647 35.2144706,16.2830882 35.1297353,16.2628529 C35.0854706,16.2577941 34.9868235,16.2438824 34.8780588,16.2438824 C34.7676745,16.2419329 34.6576402,16.2568601 34.5517647,16.2881471 C34.4645195,16.3195355 34.3854295,16.3701012 34.3203235,16.4361176 C34.2304457,16.5224274 34.1597719,16.6267143 34.1129118,16.7421765 C34.0484118,16.9255588 33.9940294,17.2063235 33.9447059,17.5730882 L34.873,17.5730882 C34.9526765,17.5730882 35.0159118,17.5983824 35.0563824,17.6464412 C35.0854706,17.6767941 35.1196176,17.7349706 35.1107647,17.8235 L34.9767059,18.5317353 C34.9577353,18.6885588 34.8337941,18.7340882 34.7402059,18.7340882 L33.7410882,18.7340882 L33.0012353,22.9278529 C32.9327995,23.3225544 32.831697,23.7108894 32.6989706,24.0888529 C32.5959525,24.3794632 32.4384188,24.6477427 32.2348235,24.8792941 C32.0324706,25.1018824 31.8048235,25.2587059 31.5582059,25.3485 C31.3115882,25.4370294 31.0194412,25.4812941 30.6893529,25.4812941 C30.5249412,25.4812941 30.3630588,25.4775 30.1708235,25.4319706 C30.0600138,25.4084043 29.9509842,25.3771322 29.8445294,25.3383824 C29.7279625,25.2914796 29.6705474,25.1597626 29.7155294,25.0424412 C29.7408235,24.9779412 29.9431765,24.4290588 29.9684706,24.3557059 C29.9883078,24.2999635 30.0299954,24.2547067 30.0839242,24.2303672 C30.1378529,24.2060276 30.1993695,24.2047056 30.2542941,24.2267059 C30.3137353,24.252 30.3478824,24.2671765 30.4123824,24.2810882 C30.4857353,24.2912059 30.5856471,24.3063824 30.659,24.3063824 C30.7810621,24.308617 30.9027102,24.2915436 31.0194412,24.2557941 C31.1195185,24.2205213 31.2049697,24.1528724 31.2622647,24.0635588 C31.3590446,23.9269262 31.4325473,23.77522 31.4797941,23.6145882 C31.5531471,23.4172941 31.6176471,23.1453824 31.6770882,22.8051765 L32.4080882,18.7328235 L31.8149412,18.7328235 C31.7314706,18.7328235 31.6669706,18.7087941 31.6227059,18.6594706 C31.5843583,18.6065662 31.56845,18.5406606 31.5784412,18.4760882 L31.7011176,17.7754412 C31.7365294,17.6224118 31.8743824,17.5768824 31.949,17.5730882 L32.6003235,17.5730882 L32.6445882,17.2164412 C32.7685294,16.5157941 33.0062941,15.9770294 33.3566176,15.6165882 C33.7233824,15.2561471 34.2305294,15.0677059 34.8780588,15.0677059 Z M20.0127059,15.1764706 C20.0670882,15.1764706 20.1062941,15.2207353 20.1062941,15.2801765 C20.1062941,15.2207353 20.0683529,15.1764706 20.0127059,15.1764706 Z M10.7006765,17.4491471 L10.8195588,17.4542059 L10.8246176,17.4542059 C11.4708824,17.4542059 12.1437059,17.6173529 12.6571765,17.9095 C12.8203235,17.9980294 12.8936765,18.1801471 12.8253824,18.3483529 C12.8051471,18.4027353 12.6027941,18.8959706 12.5825588,18.9503529 C12.533874,19.0802689 12.4101751,19.1667576 12.2714412,19.1678824 C12.1727941,19.1678824 12.0943824,19.1236176 12.0741471,19.1135 C11.6343199,18.9073362 11.1559894,18.7961566 10.6703235,18.7872059 C10.3743824,18.7872059 10.1669706,18.9010294 10.1669706,19.0844118 C10.1669706,19.2576765 10.6753824,19.4107059 11.0864118,19.5283235 L11.1901176,19.5637353 C11.8174118,19.7458529 12.9923235,20.0873235 12.9923235,21.2382059 C12.9923235,22.3195294 12.1323235,23.0163824 10.8043824,23.0163824 C10.0885588,23.0163824 9.51944118,22.8937059 8.94652941,22.6116765 L8.88329412,22.5813235 C8.78338235,22.5269412 8.68979412,22.4776176 8.56205882,22.3890882 C8.44435667,22.2941641 8.40766176,22.1306097 8.47352941,21.9945 L8.70497059,21.3962941 C8.75021836,21.2543427 8.88227681,21.1581141 9.03126471,21.1585294 C9.09862497,21.158598 9.16483139,21.1760208 9.2235,21.2091176 L9.30697059,21.2635 L9.42585294,21.3216765 C9.85079412,21.5746176 10.3250588,21.6972941 10.8334706,21.6972941 C11.1850588,21.6972941 11.4215588,21.5581765 11.4215588,21.3368529 C11.4215588,21.1547353 10.9536176,21.0257353 10.5324706,20.9068529 L10.4135882,20.8727059 C9.77617647,20.7045 8.59620588,20.3933824 8.59620588,19.1881176 C8.59620588,18.1649706 9.46,17.4491471 10.7006765,17.4491471 Z M28.9845294,17.4491471 L28.9895882,17.4491471 C29.6371176,17.4491471 30.3036176,17.6173529 30.8234118,17.9044412 C30.9852941,17.9967647 31.0548529,18.1801471 30.9903529,18.3432941 C30.9701176,18.4027353 30.7677647,18.8909118 30.7475294,18.9503529 C30.6934776,19.0775112 30.5695079,19.1608188 30.4313529,19.1628235 C30.3626931,19.1616 30.2952169,19.1447309 30.2340588,19.1135 C29.7963953,18.9075526 29.3201701,18.7963616 28.8365588,18.7872059 C28.5355588,18.7872059 28.3268824,18.9010294 28.3268824,19.0844118 C28.3268824,19.2576765 28.8416176,19.4056471 29.2463235,19.5283235 L29.3500294,19.5637353 C29.9773235,19.7458529 31.1585588,20.0873235 31.1585588,21.2382059 C31.1585588,22.3195294 30.2985588,23.0163824 28.9706176,23.0163824 C28.2535294,23.0163824 27.6806176,22.8937059 27.1115,22.6116765 L27.0432059,22.5813235 C26.9445588,22.5269412 26.8497059,22.4776176 26.7219706,22.3890882 C26.6030882,22.2904412 26.574,22.1424706 26.6372353,21.9945 L26.8699412,21.4000882 C26.9135056,21.2571041 27.0467938,21.160496 27.1962353,21.1635882 C27.2657941,21.1635882 27.3391471,21.1787647 27.4276765,21.2331471 C27.4732059,21.2622353 27.5162059,21.2875294 27.5857647,21.3267353 C28.0157647,21.5746176 28.4900294,21.6972941 28.9997059,21.6972941 C29.3500294,21.6972941 29.5877941,21.5645 29.5877941,21.3419118 C29.5877941,21.1585294 29.1135294,21.0257353 28.6974412,20.9068529 L28.5747647,20.8727059 C27.9424118,20.7045 26.7561176,20.3933824 26.7561176,19.1881176 C26.7561176,18.1649706 27.6262353,17.4542059 28.8656471,17.4542059 L28.9845294,17.4491471 Z M46.6954706,17.4542059 C46.9863529,17.4542059 47.2532059,17.4693824 47.4808529,17.5035294 C47.7224118,17.5326176 48.0499706,17.6173529 48.1966765,17.6717353 C48.2852089,17.7011144 48.3581582,17.7649451 48.3990294,17.8487941 L48.4496176,18.0068824 L48.4091471,18.1055294 C48.3408529,18.2889118 48.2915294,18.4217059 48.2320882,18.5709412 L48.1625294,18.7378824 C48.1161005,18.8760681 47.9870674,18.9695409 47.8412941,18.9705882 L47.7780588,18.9655294 L47.7426471,18.9503529 C47.4227931,18.86191 47.0917512,18.8205831 46.7599706,18.8276765 C46.3451471,18.8276765 46.0479412,18.9415 45.8493824,19.1830588 C45.6331176,19.4486471 45.5243529,19.7951765 45.5243529,20.2403529 C45.5243529,20.7247353 45.6432353,21.1003529 45.8746765,21.3216765 C46.1023235,21.5341471 46.4235588,21.6429118 46.8383824,21.6429118 C47.0217647,21.6429118 47.1937647,21.6327941 47.3480588,21.6138235 C47.4757941,21.5935882 47.5997353,21.5594412 47.7628824,21.5 L47.8412941,21.4797647 L47.8855588,21.4797647 C48.0385882,21.4797647 48.1625294,21.5682941 48.2118529,21.7023529 L48.4534118,22.3245882 C48.5330882,22.5231471 48.4243235,22.6951471 48.2611765,22.7697647 C47.780507,22.9328196 47.2763962,23.016126 46.7688235,23.0163824 C45.8304118,23.0163824 45.1095294,22.7596471 44.6200882,22.2512353 C44.1319118,21.7516765 43.8840294,21.0750588 43.8840294,20.2403529 C43.8840294,19.8546176 43.9434706,19.4891176 44.0610882,19.1628235 C44.1812353,18.8175588 44.3646176,18.5216176 44.6011176,18.2686765 C44.8426765,18.017 45.1449412,17.8133824 45.4902059,17.6717353 C45.8405294,17.5275588 46.2452353,17.4542059 46.6954706,17.4542059 Z M15.8922941,17.5768824 C16.5992647,17.5768824 17.1481471,17.7349706 17.5237647,18.0422941 C17.9082353,18.3534118 18.1055294,18.8517059 18.1055294,19.5194706 L18.1055294,22.3739118 C18.1144694,22.4808162 18.0432363,22.5779523 17.9385882,22.6015588 C17.9385882,22.6015588 17.8095882,22.6319118 17.6957647,22.6559412 C17.587,22.6812353 17.1822941,22.7545882 16.8408235,22.8089706 C16.4955588,22.8633529 16.1452353,22.8886471 15.7936471,22.8886471 C15.4585,22.8886471 15.1511765,22.8633529 14.8805294,22.8039118 C14.6188908,22.7559674 14.3697466,22.655277 14.1482647,22.5079706 C13.9433813,22.3753109 13.7768156,22.1913037 13.6651471,21.9742647 C13.5466087,21.7348114 13.4888404,21.4698589 13.4969412,21.2027941 C13.4969412,20.9068529 13.5601765,20.6463235 13.6942353,20.4186765 C13.8232353,20.1960882 14.0002941,20.0076471 14.2228824,19.8596765 C14.4404118,19.7167647 14.6870294,19.6067353 14.964,19.5435 C15.2359118,19.4739412 15.5267941,19.4397941 15.8290588,19.4397941 C16.0453235,19.4397941 16.2236471,19.4448529 16.3615,19.4549706 C16.3615,19.4549706 16.5499412,19.4701471 16.7826471,19.4992353 C16.7775882,19.1033824 16.6941176,18.9604706 16.5600588,18.8668824 C16.3918529,18.748 16.1351176,18.6898235 15.7936471,18.6898235 L15.7885882,18.6898235 C15.7253529,18.6898235 14.9741176,18.6936176 14.3860294,18.9908235 C14.3518824,19.0161176 14.3114118,19.0249706 14.3114118,19.0249706 C14.2178235,19.0540588 14.0900882,19.0249706 14.0458235,18.8959706 L13.8080588,18.3040882 C13.7584823,18.2026616 13.7947367,18.0801654 13.8915294,18.0220588 C14.1988529,17.7994706 14.9399706,17.6666765 14.9741176,17.6616176 C15.2775471,17.6098412 15.5845137,17.5815124 15.8922941,17.5768824 Z M23.8321176,17.5819412 C24.1773824,17.5819412 24.5327647,17.6464412 24.8438824,17.7703824 C25.0715294,17.8589118 25.2941176,18.017 25.5268235,18.2547647 C25.6887059,18.4166471 25.9062353,18.7378824 25.9909706,19.0350882 C26.1680294,19.6231765 26.1338824,20.1568824 26.0997353,20.4186765 C26.0859126,20.5375738 25.9866905,20.6281679 25.8670294,20.6311471 L22.6319118,20.6260882 C22.6660588,21.0004412 22.7798824,21.2622353 22.9771765,21.4456176 C23.2136765,21.6631471 23.5804412,21.7820294 24.0445882,21.7820294 L24.0585,21.7820294 C24.7553529,21.7820294 25.0816471,21.6682059 25.3194118,21.5796765 L25.3877059,21.5594412 C25.4863529,21.5252941 25.6254706,21.5543824 25.6747941,21.6833824 L25.8973824,22.2562941 C25.9555588,22.3890882 25.9226765,22.5079706 25.8088529,22.5674118 C25.5710882,22.6900882 25.0323235,22.8886471 24.0496471,22.8937059 L24.0344706,22.8937059 C23.5602059,22.8937059 23.1403235,22.8292059 22.7849412,22.7002059 C22.4499278,22.5863231 22.1444842,22.3992551 21.8907941,22.1525882 C21.6559494,21.9140807 21.4786075,21.6251432 21.3722647,21.3077647 C21.2598564,20.973704 21.2042813,20.6231537 21.2078529,20.2707059 C21.2078529,19.8988824 21.2635,19.5485588 21.3621471,19.2273235 C21.4658529,18.9060882 21.6277353,18.6202647 21.8452647,18.3723824 C22.0742338,18.1221341 22.354096,17.9237726 22.6660588,17.7906176 C22.9923529,17.6515 23.3818824,17.5819412 23.8321176,17.5819412 Z M37.5061176,17.5819412 C37.926,17.5819412 38.3066765,17.6515 38.6279118,17.7893529 C38.9491471,17.9284706 39.2210588,18.1207059 39.4373235,18.3584706 C39.6510588,18.6000294 39.8129412,18.8871176 39.9179118,19.2083529 C40.0165588,19.5283235 40.0696765,19.8748529 40.0696765,20.2403529 C40.0696765,20.6058529 40.0165588,20.9511176 39.9179118,21.2672941 C39.8129412,21.5935882 39.6510588,21.8806765 39.4373235,22.1171765 C39.216,22.36 38.9440882,22.5522353 38.6279118,22.6862941 C38.3016176,22.8241471 37.926,22.8886471 37.5061176,22.8886471 C37.0862353,22.8886471 36.7106176,22.8241471 36.3893824,22.6862941 C35.7671169,22.4324307 35.2929677,21.9108666 35.0993824,21.2672941 C34.9971949,20.9346153 34.9460255,20.5883687 34.9476176,20.2403529 C34.9476176,19.8735882 35.002,19.5283235 35.0993824,19.2070882 C35.19784,18.8934457 35.3616325,18.6042226 35.5799706,18.3584706 C35.7924412,18.1207059 36.0643529,17.9284706 36.3855882,17.7893529 C36.7106176,17.6515 37.0862353,17.5819412 37.5061176,17.5819412 Z M51.0384706,17.5819412 C51.3837353,17.5819412 51.7340588,17.6464412 52.0502353,17.7703824 C52.2728235,17.8639706 52.4954118,18.017 52.7268529,18.2547647 C52.8950588,18.4166471 53.1075294,18.7378824 53.1960588,19.0350882 C53.3845,19.6573235 53.3301176,20.2150588 53.2959706,20.4275294 C53.2856701,20.5405822 53.1919426,20.6277706 53.0784412,20.6298824 L49.837,20.6260882 C49.8724118,21.0004412 49.9811765,21.2622353 50.1784706,21.4405588 C50.4149706,21.6631471 50.7855294,21.7769706 51.2458824,21.7769706 L51.2597941,21.7769706 C51.9617059,21.7769706 52.288,21.6631471 52.5245,21.5784118 L52.5940588,21.5594412 C52.7075168,21.5167078 52.8344385,21.5715022 52.8811471,21.6833824 L53.0974118,22.2562941 C53.1568529,22.3840294 53.1277647,22.5029118 53.0139412,22.5674118 C52.7761765,22.6850294 52.2386765,22.8886471 51.256,22.8886471 L51.2408235,22.8886471 C50.7602353,22.8886471 50.3416176,22.8292059 49.9900294,22.7002059 C49.6545122,22.5850136 49.3481009,22.3981459 49.0920882,22.1525882 C48.8577439,21.9117286 48.6805334,21.6212763 48.5735588,21.3027059 C48.4647717,20.969202 48.4109514,20.6202245 48.4142059,20.2694412 C48.4142059,19.8988824 48.4685882,19.5485588 48.5672353,19.2273235 C48.6709412,18.9060882 48.8340882,18.6152059 49.0478235,18.3723824 C49.2778923,18.1216921 49.5590878,17.9233026 49.8724118,17.7906176 C50.1936471,17.6515 50.5831765,17.5819412 51.0372059,17.5819412 L51.0384706,17.5819412 Z M43.3553824,17.5819412 C43.5830294,17.5971176 43.8789706,17.6565588 43.9535882,17.6856471 C44.0522353,17.716 44.1268529,17.8247647 44.0863824,17.9575588 L44.0863824,17.9626176 C44.0522353,18.0473529 43.8890882,18.4963235 43.8296471,18.6392353 C43.7917612,18.7473793 43.6873761,18.8178263 43.5729118,18.8125 C43.3189549,18.7513063 43.0537058,18.754785 42.8014412,18.8226176 C42.6635721,18.8639378 42.537163,18.9366663 42.4321471,19.0350882 C42.3128275,19.1542942 42.2231575,19.2998455 42.1703529,19.4600294 C42.1058529,19.6370882 42.0666471,19.9342941 42.0666471,20.2605882 L42.0666471,22.6660588 C42.0653202,22.7264395 42.0400539,22.7838182 41.9964097,22.8255647 C41.9527656,22.8673113 41.8943212,22.8900038 41.8339412,22.8886471 L40.9486471,22.8886471 C40.8248067,22.8893506 40.7236542,22.7898934 40.7222647,22.6660588 L40.7222647,17.8487941 C40.7222647,17.7261176 40.8209118,17.6274706 40.9448529,17.6274706 L41.8099118,17.6274706 C41.9325882,17.6274706 42.0312353,17.7261176 42.0312353,17.8487941 L42.0312353,17.9525 C42.1501176,17.8690294 42.2841765,17.7893529 42.4270882,17.7248529 C42.6395588,17.6363235 42.8912353,17.5579118 43.3553824,17.5819412 Z M23.7537059,18.6594706 C23.3641765,18.6594706 23.0821471,18.7922647 22.8899118,19.0641765 C22.7912647,19.2032941 22.7166471,19.3803529 22.6673235,19.5978824 L24.7819118,19.6029412 C24.7465,19.3651765 24.6883235,19.1931765 24.5934706,19.0641765 C24.3961765,18.7834118 24.1343824,18.6594706 23.7537059,18.6594706 Z M50.955,18.6594706 C50.5642059,18.6594706 50.2834412,18.7922647 50.095,19.0641765 C49.9912941,19.2032941 49.9179412,19.3803529 49.8736765,19.5978824 L51.9832059,19.6029412 C51.9666276,19.4103789 51.901821,19.2250927 51.7947647,19.0641765 C51.5974706,18.7834118 51.3356765,18.6594706 50.955,18.6594706 Z M37.5073824,18.6797059 C37.1077353,18.6797059 36.8307647,18.8023824 36.6435882,19.0641765 C36.4551471,19.3360882 36.3565,19.7319412 36.3565,20.2403529 C36.3565,20.7487647 36.4551471,21.1496765 36.6473824,21.4203235 C36.8307647,21.6871765 37.1077353,21.8123824 37.5073824,21.8123824 C37.9120882,21.8123824 38.1903235,21.6871765 38.3775,21.4203235 C38.5747941,21.1446176 38.6734412,20.7500294 38.6734412,20.2403529 C38.6734412,19.7319412 38.5747941,19.3360882 38.3775,19.0641765 C38.1890588,18.8023824 37.9133529,18.6797059 37.5073824,18.6797059 Z M47.8134706,18.7138529 L47.8425588,18.7138529 L47.8134706,18.7138529 Z M12.3511176,18.8529706 C12.3270882,18.9010294 12.2929412,18.9111471 12.2575294,18.9111471 L12.2727059,18.9111471 C12.3030588,18.9111471 12.3321471,18.8959706 12.3523824,18.8517059 L12.3511176,18.8529706 Z M30.5122941,18.8529706 C30.4920588,18.9010294 30.4579118,18.9111471 30.4237647,18.9111471 L30.4338824,18.9111471 C30.4629706,18.9111471 30.4971176,18.8959706 30.5122941,18.8517059 L30.5122941,18.8529706 Z M15.953,20.4768529 C15.4939118,20.4768529 15.2321176,20.5957353 15.1385294,20.6501176 L15.0841471,20.6842647 C14.9197353,20.7930294 14.8413235,20.9511176 14.8413235,21.1838235 C14.8413235,21.3317941 14.8716765,21.4456176 14.921,21.5202353 C14.9602059,21.5746176 14.9703235,21.5885294 15.0892059,21.672 L15.0942647,21.6783235 C15.1132353,21.6922353 15.3902059,21.8604412 15.9922059,21.8300882 C16.3235588,21.8111176 16.6296176,21.7668529 16.7839118,21.7377647 L16.7839118,20.5312353 C16.6296176,20.5173235 16.3235588,20.4819118 15.9934706,20.4768529 L15.953,20.4768529 Z M47.8868235,21.7327059 C47.8615294,21.7327059 47.8476176,21.7365 47.8476176,21.7365 L47.8868235,21.7365 L47.8868235,21.7327059 Z M20.1075588,22.661 C20.1075588,22.7204412 20.0696176,22.7647059 20.0139706,22.7647059 C20.0683529,22.7647059 20.1075588,22.7204412 20.1075588,22.661 Z" id="surface1"></path>
        </g>
    </g>
</svg>