<?xml version="1.0" encoding="UTF-8"?>
<svg width="44px" height="43px" viewBox="0 0 44 43" version="1.1" xmlns="http://www.w3.org/2000/svg" xmlns:xlink="http://www.w3.org/1999/xlink">
    <!-- Generator: Sketch 48.1 (47250) - http://www.bohemiancoding.com/sketch -->
    <title>swift-brand-company-logo-3a6c0adf2476dca2</title>
    <desc>Created with Sketch.</desc>
    <defs></defs>
    <g id="Page-1" stroke="none" stroke-width="1" fill="none" fill-rule="evenodd">
        <g id="swift-brand-company-logo-3a6c0adf2476dca2" fill-rule="nonzero">
            <path d="M9.55742187,0 L33.3753906,0 C34.534375,0 35.6597656,0.184765625 36.7515625,0.57109375 C38.3304687,1.1421875 39.7582031,2.15 40.8332031,3.46015625 C41.925,4.7703125 42.6472656,6.3828125 42.8992187,8.0625 C43,8.68398438 43.0167969,9.30546875 43.0167969,9.92695313 L43.0167969,33.1570313 C43.0167969,33.8960938 42.9832031,34.6519531 42.8320312,35.3742188 C42.4960937,37.0371094 41.7066406,38.5992187 40.5644531,39.8589844 C39.4390625,41.11875 37.9609375,42.059375 36.3652344,42.5632813 C35.3910156,42.865625 34.3832031,43 33.3585937,43 C32.9050781,43 9.49023438,43 9.1375,42.9832031 C7.42421875,42.8992188 5.72773438,42.3449219 4.3,41.3875 C2.90585938,40.446875 1.76367188,39.1367188 1.02460938,37.625 C0.386328125,36.3316406 0.0671875,34.8871094 0.0671875,33.4425781 L0.0671875,9.55742188 C0.03359375,8.1296875 0.3359375,6.71875 0.957421875,5.4421875 C1.6796875,3.93046875 2.80507812,2.60351563 4.19921875,1.66289062 C5.62695312,0.688671875 7.30664062,0.117578125 9.01992187,0.03359375 C9.18789062,0 9.37265625,0 9.55742187,0 Z" id="Shape" fill="#848C97"></path>
            <path d="M24.3050781,6.3828125 C38.4816406,16.0242188 33.8960937,26.6566406 33.8960937,26.6566406 C33.8960937,26.6566406 37.9273437,31.2085937 36.2980469,35.1894531 C36.2980469,35.1894531 34.6351562,32.4011719 31.846875,32.4011719 C29.159375,32.4011719 27.5804687,35.1894531 22.171875,35.1894531 C10.1285156,35.1894531 4.434375,25.128125 4.434375,25.128125 C15.2851562,32.2667969 22.6925781,27.2109375 22.6925781,27.2109375 C17.8046875,24.3722656 7.40742187,10.8003906 7.40742187,10.8003906 C16.4609375,18.5101562 20.3746094,20.5425781 20.3746094,20.5425781 C18.0398437,18.6109375 11.4890625,9.17109375 11.4890625,9.17109375 C16.7296875,14.4789062 27.14375,21.8863281 27.14375,21.8863281 C30.1,13.6894531 24.3050781,6.3828125 24.3050781,6.3828125 Z" id="Shape" fill="#FFFFFF"></path>
        </g>
    </g>
</svg>