<?xml version="1.0" encoding="UTF-8"?>
<svg width="43px" height="43px" viewBox="0 0 43 43" version="1.1" xmlns="http://www.w3.org/2000/svg" xmlns:xlink="http://www.w3.org/1999/xlink">
    <!-- Generator: Sketch 48.1 (47250) - http://www.bohemiancoding.com/sketch -->
    <title>wordpress-30c312d475f485fe</title>
    <desc>Created with Sketch.</desc>
    <defs></defs>
    <g id="Page-1" stroke="none" stroke-width="1" fill="none" fill-rule="evenodd">
        <g id="wordpress-30c312d475f485fe" fill="#848C97" fill-rule="nonzero">
            <path d="M21.5,0 C9.64454167,0 0,9.64454167 0,21.5 C0,33.3554583 9.64454167,43 21.5,43 C33.3554583,43 43,33.3554583 43,21.5 C43,9.64454167 33.3554583,0 21.5,0 Z M21.5,1.00870833 C32.8107917,1.00870833 41.9930833,10.191 41.9930833,21.5 C41.9930833,32.8107917 32.8107917,41.9930833 21.5,41.9930833 C10.1892083,41.9930833 1.00691667,32.8107917 1.00691667,21.5 C1.00870833,10.1892083 10.191,1.00691667 21.5,1.00691667 L21.5,1.00870833 Z M21.5,3.079875 C15.2972798,3.06389561 9.50579298,6.18067785 6.10241667,11.3663333 C6.536,11.3806667 6.928375,11.3663333 7.27954167,11.3663333 C9.21095833,11.3663333 12.206625,11.142375 12.206625,11.142375 C13.1992083,11.0868333 13.3120833,12.5345 12.3177083,12.6545417 C12.3177083,12.6545417 11.303625,12.8211667 10.1892083,12.8767083 L16.9079583,32.8107917 L20.9392083,20.7170417 L18.0850833,12.8767083 C17.0907083,12.8229583 16.125,12.6545417 16.125,12.6545417 C15.130625,12.5972083 15.2435,11.0850417 16.237875,11.142375 C16.237875,11.142375 19.29625,11.3663333 21.107625,11.3663333 C23.0390417,11.3663333 26.0347083,11.142375 26.0347083,11.142375 C27.0290833,11.0868333 27.1401667,12.5345 26.1475833,12.6545417 C26.1475833,12.6545417 25.1263333,12.8211667 24.0190833,12.8767083 L30.6822917,32.6979167 L32.5295,26.5381667 C33.4611667,24.1462917 33.9305833,22.1306667 33.9305833,20.548625 C33.9305833,18.2660417 33.1243333,16.732375 32.4184167,15.5086667 C31.48675,13.991125 30.62675,12.6599167 30.62675,11.142375 C30.62675,9.44745833 31.8934583,7.89408333 33.7048333,7.89408333 L33.9287917,7.89408333 C30.5391935,4.78286204 26.1009537,3.06437971 21.5,3.08166667 L21.5,3.079875 Z M37.6805417,12.65275 C37.76475,13.2422083 37.7934167,13.87825 37.7934167,14.5572917 C37.7934167,16.426 37.44225,18.533 36.3923333,21.1649583 L30.793375,37.4565833 C36.4633544,34.1455259 39.9414096,28.0659263 39.9219167,21.5 C39.9219167,18.2929167 39.124625,15.2775417 37.6823333,12.65275 L37.6805417,12.65275 Z M4.64758333,13.9965 C3.60250142,16.3593785 3.06827304,18.9163482 3.079875,21.5 C3.079875,28.79925 7.28491667,35.0844167 13.4375,38.0729167 L4.64758333,13.9965 Z M21.8350417,23.12325 L16.2934167,39.1927083 C17.9453333,39.6764583 19.6868333,39.920125 21.5,39.920125 C23.65,39.920125 25.6853333,39.5850833 27.6024167,38.9132083 C27.5540417,38.8361667 27.525375,38.7232917 27.4913333,38.6319167 L21.8350417,23.12325 Z" id="surface1"></path>
        </g>
    </g>
</svg>