<?xml version="1.0" standalone="no"?>
<!DOCTYPE svg PUBLIC "-//W3C//DTD SVG 20010904//EN"
 "http://www.w3.org/TR/2001/REC-SVG-20010904/DTD/svg10.dtd">
<svg version="1.0" xmlns="http://www.w3.org/2000/svg"
 width="700.000000pt" height="700.000000pt" viewBox="0 0 700.000000 700.000000"
 preserveAspectRatio="xMidYMid meet">
<metadata>
Created by potrace 1.11, written by Peter Selinger 2001-2013
</metadata>
<g transform="translate(0.000000,700.000000) scale(0.100000,-0.100000)"
fill="#000000" stroke="none">
<path d="M520 6994 c-118 -22 -245 -90 -329 -175 -78 -78 -121 -146 -157 -249
-35 -99 -41 -251 -13 -350 52 -180 165 -319 321 -393 l68 -32 0 -355 c0 -271
4 -371 15 -423 41 -196 170 -354 359 -441 21 -10 44 -19 50 -20 6 -2 38 -8 71
-16 40 -8 145 -13 317 -13 228 -1 256 -3 248 -17 -18 -34 -60 -131 -60 -138 0
-4 -7 -20 -15 -35 -26 -50 -92 -270 -111 -367 -3 -19 -14 -87 -23 -150 l-17
-115 -407 0 c-225 0 -412 2 -417 5 -4 3 -10 64 -11 136 -4 122 -6 133 -31 172
-82 123 -259 125 -343 4 l-30 -44 0 -478 0 -478 30 -44 c17 -23 51 -54 75 -67
102 -57 240 -7 285 102 8 19 14 80 14 152 1 66 4 122 7 125 3 2 192 5 419 5
l414 0 6 -25 c3 -14 8 -38 11 -55 25 -144 101 -333 197 -490 27 -44 104 -143
151 -193 27 -28 47 -53 45 -53 -2 -1 -164 -2 -359 -4 -295 -2 -366 -5 -420
-19 -174 -45 -321 -161 -397 -313 -36 -71 -78 -210 -72 -239 1 -5 1 -165 0
-356 l-1 -346 -34 -12 c-52 -17 -145 -81 -201 -138 -63 -63 -109 -139 -143
-234 -23 -64 -26 -88 -25 -193 0 -95 5 -133 21 -183 93 -276 353 -458 627
-438 103 7 142 19 239 69 139 72 259 215 307 367 24 73 34 234 19 290 -5 19
-11 49 -14 65 -10 59 -86 190 -144 250 -60 62 -152 126 -208 147 l-34 12 0
342 c0 375 3 399 59 455 64 63 53 62 629 63 288 1 527 -1 532 -4 5 -3 10 -64
11 -135 2 -159 17 -233 66 -333 52 -106 168 -223 273 -275 113 -56 174 -68
345 -71 l150 -3 0 315 c0 334 4 378 46 430 25 32 89 69 129 75 78 12 174 -39
211 -113 22 -44 23 -53 23 -370 0 -179 4 -327 8 -330 6 -5 380 -5 398 -1 3 0
5 143 5 317 0 346 4 379 55 431 104 106 278 77 337 -57 13 -29 16 -89 17 -366
l1 -331 150 2 c176 2 231 13 344 68 158 77 285 237 324 409 8 38 16 124 16
199 1 73 4 135 6 138 2 3 241 6 532 6 l529 0 50 -26 c31 -16 60 -41 79 -70
l30 -44 2 -360 3 -360 -68 -32 c-320 -153 -437 -559 -250 -870 59 -98 164
-194 268 -244 124 -60 295 -73 425 -32 194 61 348 213 412 407 23 69 27 98 26
196 0 98 -4 126 -26 188 -33 94 -79 169 -142 234 -56 57 -148 121 -201 138
l-34 12 -1 346 c0 191 -3 365 -5 387 -19 186 -157 385 -326 467 -139 69 -177
73 -601 73 -174 0 -316 3 -315 7 2 3 21 26 44 50 178 190 305 435 349 674 l16
89 417 0 417 0 6 -130 c3 -72 9 -139 14 -150 46 -112 183 -161 284 -104 24 13
58 44 75 67 l31 44 0 478 0 478 -30 44 c-86 121 -254 121 -340 0 -29 -42 -30
-48 -35 -180 l-5 -137 -408 0 c-355 0 -410 2 -417 15 -4 8 -11 43 -14 78 -19
180 -78 393 -166 599 -28 63 -50 119 -50 122 0 4 107 7 238 7 130 0 262 3 292
7 207 23 404 177 483 377 42 108 47 162 47 536 l0 352 34 12 c53 17 145 81
201 138 105 107 165 247 170 398 10 256 -123 480 -350 589 -102 50 -125 55
-250 60 -235 8 -452 -128 -560 -350 -48 -99 -65 -181 -61 -295 6 -157 62 -289
171 -402 54 -55 147 -120 201 -140 l34 -12 0 -336 c0 -193 -4 -350 -10 -371
-17 -59 -52 -102 -105 -129 l-50 -24 -380 -1 -380 0 -40 45 c-286 320 -620
539 -1015 666 -41 14 -88 27 -104 30 -16 3 -33 7 -37 9 -10 7 -136 33 -195 41
-27 3 -57 8 -67 10 -132 25 -474 22 -637 -5 -110 -19 -126 -22 -185 -37 -33
-9 -71 -18 -83 -20 -90 -18 -354 -123 -482 -192 -195 -105 -405 -266 -570
-439 l-105 -109 -382 1 -382 2 -48 29 c-30 19 -57 46 -73 74 l-25 45 -3 355
-3 356 34 12 c101 36 226 146 290 254 61 103 82 184 81 318 0 98 -4 126 -26
188 -71 197 -210 336 -405 403 -57 19 -218 33 -273 23z m1910 -2941 c448 -217
764 -377 795 -404 49 -43 67 -90 66 -169 -2 -75 -3 -89 -20 -150 -48 -171
-187 -327 -357 -398 -27 -11 -62 -23 -77 -26 -15 -4 -39 -9 -54 -12 -51 -12
-187 -6 -253 11 -234 60 -417 246 -466 473 -18 86 -19 558 -1 600 32 73 81
115 153 130 57 12 96 2 214 -55z m2421 29 c40 -24 71 -64 87 -110 17 -49 14
-519 -4 -601 -14 -66 -67 -187 -100 -230 -94 -118 -191 -187 -326 -230 -85
-28 -218 -32 -310 -11 -193 45 -365 186 -442 363 -49 110 -62 247 -32 318 31
73 37 76 806 452 80 39 161 74 180 77 47 8 100 -2 141 -28z"/>
</g>
</svg>
